G04*
G04 #@! TF.GenerationSoftware,Altium Limited,Altium Designer,21.0.9 (235)*
G04*
G04 Layer_Color=65535*
%FSLAX25Y25*%
%MOIN*%
G70*
G04*
G04 #@! TF.SameCoordinates,BF7D474B-E12B-4DDB-9B88-BAE4D01EB7A6*
G04*
G04*
G04 #@! TF.FilePolarity,Positive*
G04*
G01*
G75*
%ADD10C,0.00394*%
%ADD11C,0.00984*%
%ADD12C,0.00787*%
G36*
X133241Y49979D02*
X133300Y49972D01*
X133372Y49966D01*
X133444Y49953D01*
X133530Y49940D01*
X133707Y49894D01*
X133805Y49861D01*
X133897Y49822D01*
X133989Y49776D01*
X134074Y49730D01*
X134159Y49664D01*
X134238Y49599D01*
X134245Y49592D01*
X134258Y49579D01*
X134277Y49559D01*
X134304Y49526D01*
X134330Y49487D01*
X134369Y49441D01*
X134402Y49382D01*
X134441Y49316D01*
X134481Y49244D01*
X134520Y49159D01*
X134553Y49067D01*
X134586Y48969D01*
X134619Y48864D01*
X134638Y48752D01*
X134658Y48628D01*
X134664Y48496D01*
X133844Y48450D01*
Y48457D01*
Y48470D01*
X133838Y48490D01*
X133831Y48516D01*
X133818Y48582D01*
X133792Y48667D01*
X133759Y48759D01*
X133720Y48851D01*
X133667Y48936D01*
X133608Y49002D01*
X133602Y49008D01*
X133576Y49028D01*
X133536Y49054D01*
X133477Y49080D01*
X133405Y49106D01*
X133320Y49133D01*
X133221Y49152D01*
X133103Y49159D01*
X133051D01*
X132992Y49152D01*
X132920Y49139D01*
X132834Y49126D01*
X132749Y49100D01*
X132670Y49067D01*
X132598Y49021D01*
X132592Y49015D01*
X132572Y48995D01*
X132539Y48969D01*
X132513Y48929D01*
X132480Y48877D01*
X132447Y48818D01*
X132428Y48746D01*
X132421Y48674D01*
Y48667D01*
Y48641D01*
X132428Y48601D01*
X132441Y48555D01*
X132460Y48503D01*
X132487Y48450D01*
X132526Y48392D01*
X132579Y48339D01*
X132585Y48333D01*
X132611Y48313D01*
X132657Y48287D01*
X132690Y48267D01*
X132729Y48247D01*
X132775Y48228D01*
X132828Y48201D01*
X132887Y48175D01*
X132959Y48149D01*
X133038Y48123D01*
X133123Y48096D01*
X133215Y48063D01*
X133320Y48031D01*
X133326D01*
X133346Y48024D01*
X133379Y48011D01*
X133418Y47998D01*
X133471Y47985D01*
X133530Y47965D01*
X133661Y47919D01*
X133805Y47860D01*
X133956Y47801D01*
X134087Y47729D01*
X134153Y47696D01*
X134205Y47657D01*
X134219Y47650D01*
X134251Y47624D01*
X134297Y47578D01*
X134363Y47519D01*
X134428Y47447D01*
X134501Y47355D01*
X134566Y47257D01*
X134625Y47145D01*
Y47139D01*
X134632Y47132D01*
X134638Y47112D01*
X134651Y47093D01*
X134671Y47027D01*
X134704Y46935D01*
X134730Y46830D01*
X134750Y46699D01*
X134769Y46555D01*
X134776Y46397D01*
Y46391D01*
Y46371D01*
Y46338D01*
X134769Y46292D01*
X134763Y46233D01*
X134756Y46168D01*
X134743Y46102D01*
X134724Y46023D01*
X134678Y45853D01*
X134645Y45761D01*
X134606Y45669D01*
X134560Y45577D01*
X134507Y45485D01*
X134448Y45400D01*
X134376Y45315D01*
X134369Y45308D01*
X134356Y45295D01*
X134336Y45276D01*
X134304Y45249D01*
X134258Y45216D01*
X134205Y45177D01*
X134146Y45138D01*
X134074Y45098D01*
X133995Y45059D01*
X133904Y45020D01*
X133799Y44980D01*
X133687Y44947D01*
X133569Y44921D01*
X133438Y44902D01*
X133293Y44888D01*
X133143Y44882D01*
X133103D01*
X133077Y44888D01*
X133044D01*
X133005Y44895D01*
X132906Y44908D01*
X132795Y44934D01*
X132664Y44974D01*
X132526Y45026D01*
X132382Y45092D01*
X132237Y45184D01*
X132087Y45295D01*
X132021Y45361D01*
X131949Y45433D01*
X131883Y45512D01*
X131824Y45597D01*
X131765Y45689D01*
X131706Y45787D01*
X131660Y45899D01*
X131614Y46017D01*
X131575Y46141D01*
X131542Y46279D01*
X131516Y46424D01*
X131496Y46574D01*
X132290Y46666D01*
Y46653D01*
X132296Y46627D01*
X132309Y46581D01*
X132323Y46522D01*
X132342Y46450D01*
X132369Y46364D01*
X132408Y46279D01*
X132447Y46194D01*
X132500Y46109D01*
X132565Y46023D01*
X132631Y45938D01*
X132716Y45872D01*
X132808Y45807D01*
X132920Y45761D01*
X133038Y45735D01*
X133169Y45722D01*
X133228D01*
X133293Y45735D01*
X133379Y45748D01*
X133471Y45768D01*
X133569Y45800D01*
X133661Y45846D01*
X133746Y45912D01*
X133753Y45918D01*
X133779Y45945D01*
X133812Y45990D01*
X133858Y46043D01*
X133897Y46115D01*
X133930Y46194D01*
X133956Y46286D01*
X133963Y46391D01*
Y46397D01*
Y46417D01*
X133956Y46450D01*
Y46489D01*
X133930Y46587D01*
X133910Y46633D01*
X133884Y46679D01*
Y46686D01*
X133871Y46699D01*
X133851Y46719D01*
X133831Y46745D01*
X133799Y46778D01*
X133759Y46810D01*
X133713Y46843D01*
X133661Y46870D01*
X133654Y46876D01*
X133628Y46883D01*
X133582Y46902D01*
X133549Y46916D01*
X133510Y46929D01*
X133471Y46948D01*
X133418Y46968D01*
X133352Y46988D01*
X133287Y47014D01*
X133208Y47034D01*
X133123Y47066D01*
X133031Y47093D01*
X132926Y47125D01*
X132920D01*
X132906Y47132D01*
X132874Y47139D01*
X132841Y47152D01*
X132801Y47165D01*
X132749Y47184D01*
X132638Y47230D01*
X132513Y47276D01*
X132388Y47335D01*
X132270Y47401D01*
X132165Y47466D01*
X132152Y47473D01*
X132126Y47499D01*
X132080Y47545D01*
X132027Y47598D01*
X131962Y47670D01*
X131903Y47749D01*
X131837Y47847D01*
X131778Y47952D01*
Y47958D01*
X131772Y47965D01*
X131758Y48004D01*
X131732Y48063D01*
X131712Y48149D01*
X131686Y48241D01*
X131660Y48352D01*
X131647Y48477D01*
X131640Y48601D01*
Y48608D01*
Y48621D01*
Y48641D01*
Y48667D01*
X131647Y48706D01*
Y48746D01*
X131660Y48844D01*
X131686Y48956D01*
X131712Y49080D01*
X131758Y49205D01*
X131817Y49330D01*
Y49336D01*
X131824Y49343D01*
X131850Y49382D01*
X131890Y49441D01*
X131949Y49513D01*
X132021Y49592D01*
X132106Y49671D01*
X132211Y49749D01*
X132323Y49815D01*
X132329D01*
X132336Y49822D01*
X132355Y49828D01*
X132382Y49841D01*
X132414Y49854D01*
X132454Y49867D01*
X132546Y49900D01*
X132664Y49933D01*
X132801Y49959D01*
X132952Y49979D01*
X133123Y49986D01*
X133188D01*
X133241Y49979D01*
D02*
G37*
G36*
X143120Y44967D02*
X142359D01*
Y48851D01*
X141559Y44967D01*
X140772D01*
X139978Y48851D01*
Y44967D01*
X139217D01*
Y49900D01*
X140437D01*
X141165Y46528D01*
X141887Y49900D01*
X143120D01*
Y44967D01*
D02*
G37*
G36*
X137374D02*
X136488D01*
X135052Y49900D01*
X135931D01*
X136954Y46246D01*
X137938Y49900D01*
X138817D01*
X137374Y44967D01*
D02*
G37*
G36*
X146033Y46791D02*
X146532D01*
Y45958D01*
X146033D01*
Y44967D01*
X145285D01*
Y45958D01*
X143625D01*
Y46784D01*
X145377Y49913D01*
X146033D01*
Y46791D01*
D02*
G37*
G36*
X148263Y49907D02*
X148303D01*
X148355Y49894D01*
X148408Y49881D01*
X148473Y49867D01*
X148546Y49841D01*
X148618Y49815D01*
X148696Y49776D01*
X148775Y49730D01*
X148854Y49677D01*
X148933Y49612D01*
X149011Y49533D01*
X149083Y49448D01*
X149156Y49349D01*
X149162Y49343D01*
X149169Y49323D01*
X149188Y49290D01*
X149215Y49238D01*
X149241Y49179D01*
X149274Y49100D01*
X149306Y49008D01*
X149339Y48897D01*
X149372Y48772D01*
X149405Y48628D01*
X149438Y48470D01*
X149464Y48287D01*
X149490Y48096D01*
X149510Y47880D01*
X149516Y47644D01*
X149523Y47394D01*
Y47388D01*
Y47381D01*
Y47362D01*
Y47335D01*
Y47263D01*
X149516Y47165D01*
X149510Y47053D01*
X149503Y46922D01*
X149490Y46778D01*
X149477Y46627D01*
X149431Y46305D01*
X149405Y46141D01*
X149365Y45977D01*
X149326Y45827D01*
X149280Y45682D01*
X149221Y45551D01*
X149156Y45439D01*
X149149Y45433D01*
X149136Y45413D01*
X149116Y45387D01*
X149090Y45354D01*
X149057Y45308D01*
X149011Y45262D01*
X148959Y45210D01*
X148900Y45164D01*
X148841Y45112D01*
X148768Y45059D01*
X148605Y44967D01*
X148513Y44934D01*
X148421Y44908D01*
X148316Y44888D01*
X148211Y44882D01*
X148185D01*
X148152Y44888D01*
X148112D01*
X148060Y44902D01*
X148008Y44908D01*
X147942Y44928D01*
X147870Y44954D01*
X147798Y44980D01*
X147719Y45020D01*
X147640Y45059D01*
X147562Y45112D01*
X147483Y45177D01*
X147404Y45249D01*
X147332Y45335D01*
X147260Y45433D01*
X147253Y45439D01*
X147247Y45459D01*
X147227Y45492D01*
X147201Y45544D01*
X147175Y45603D01*
X147148Y45682D01*
X147115Y45781D01*
X147083Y45886D01*
X147043Y46017D01*
X147011Y46161D01*
X146984Y46319D01*
X146958Y46496D01*
X146932Y46699D01*
X146912Y46909D01*
X146906Y47145D01*
X146899Y47401D01*
Y47407D01*
Y47414D01*
Y47434D01*
Y47460D01*
Y47532D01*
X146906Y47624D01*
X146912Y47742D01*
X146919Y47873D01*
X146932Y48011D01*
X146945Y48169D01*
X146984Y48490D01*
X147050Y48811D01*
X147096Y48962D01*
X147142Y49106D01*
X147194Y49238D01*
X147260Y49349D01*
X147266Y49356D01*
X147279Y49376D01*
X147299Y49402D01*
X147325Y49435D01*
X147365Y49481D01*
X147404Y49526D01*
X147457Y49579D01*
X147516Y49631D01*
X147581Y49684D01*
X147647Y49736D01*
X147725Y49782D01*
X147811Y49828D01*
X147903Y49861D01*
X147994Y49887D01*
X148099Y49907D01*
X148204Y49913D01*
X148231D01*
X148263Y49907D01*
D02*
G37*
G36*
X121007Y55398D02*
X121051Y55393D01*
X121105Y55388D01*
X121160Y55378D01*
X121223Y55368D01*
X121356Y55334D01*
X121430Y55309D01*
X121499Y55280D01*
X121568Y55245D01*
X121632Y55211D01*
X121696Y55161D01*
X121755Y55112D01*
X121760Y55107D01*
X121770Y55098D01*
X121784Y55083D01*
X121804Y55058D01*
X121824Y55029D01*
X121853Y54994D01*
X121878Y54950D01*
X121907Y54901D01*
X121937Y54847D01*
X121966Y54783D01*
X121991Y54714D01*
X122016Y54640D01*
X122040Y54561D01*
X122055Y54478D01*
X122070Y54384D01*
X122075Y54286D01*
X121460Y54251D01*
Y54256D01*
Y54266D01*
X121455Y54281D01*
X121450Y54300D01*
X121440Y54350D01*
X121420Y54414D01*
X121396Y54483D01*
X121366Y54551D01*
X121327Y54615D01*
X121282Y54665D01*
X121278Y54669D01*
X121258Y54684D01*
X121228Y54704D01*
X121184Y54724D01*
X121130Y54743D01*
X121066Y54763D01*
X120992Y54778D01*
X120904Y54783D01*
X120864D01*
X120820Y54778D01*
X120766Y54768D01*
X120702Y54758D01*
X120638Y54738D01*
X120579Y54714D01*
X120525Y54679D01*
X120520Y54674D01*
X120505Y54660D01*
X120481Y54640D01*
X120461Y54610D01*
X120436Y54571D01*
X120412Y54527D01*
X120397Y54473D01*
X120392Y54419D01*
Y54414D01*
Y54394D01*
X120397Y54364D01*
X120407Y54330D01*
X120422Y54291D01*
X120441Y54251D01*
X120471Y54207D01*
X120510Y54168D01*
X120515Y54163D01*
X120535Y54148D01*
X120569Y54128D01*
X120594Y54114D01*
X120623Y54099D01*
X120658Y54084D01*
X120697Y54064D01*
X120741Y54045D01*
X120795Y54025D01*
X120854Y54005D01*
X120918Y53986D01*
X120987Y53961D01*
X121066Y53936D01*
X121071D01*
X121086Y53931D01*
X121110Y53922D01*
X121140Y53912D01*
X121179Y53902D01*
X121223Y53887D01*
X121322Y53853D01*
X121430Y53808D01*
X121543Y53764D01*
X121642Y53710D01*
X121691Y53685D01*
X121730Y53656D01*
X121740Y53651D01*
X121765Y53631D01*
X121799Y53597D01*
X121848Y53553D01*
X121897Y53499D01*
X121952Y53430D01*
X122001Y53356D01*
X122045Y53272D01*
Y53267D01*
X122050Y53262D01*
X122055Y53248D01*
X122065Y53233D01*
X122080Y53184D01*
X122104Y53115D01*
X122124Y53036D01*
X122139Y52938D01*
X122153Y52829D01*
X122158Y52711D01*
Y52706D01*
Y52692D01*
Y52667D01*
X122153Y52633D01*
X122148Y52588D01*
X122143Y52539D01*
X122134Y52490D01*
X122119Y52431D01*
X122084Y52303D01*
X122060Y52234D01*
X122030Y52165D01*
X121996Y52096D01*
X121957Y52027D01*
X121912Y51964D01*
X121858Y51899D01*
X121853Y51895D01*
X121843Y51885D01*
X121829Y51870D01*
X121804Y51850D01*
X121770Y51826D01*
X121730Y51796D01*
X121686Y51767D01*
X121632Y51737D01*
X121573Y51708D01*
X121504Y51678D01*
X121425Y51649D01*
X121342Y51624D01*
X121253Y51604D01*
X121155Y51590D01*
X121046Y51580D01*
X120933Y51575D01*
X120904D01*
X120884Y51580D01*
X120859D01*
X120830Y51585D01*
X120756Y51595D01*
X120672Y51614D01*
X120574Y51644D01*
X120471Y51683D01*
X120362Y51732D01*
X120254Y51801D01*
X120141Y51885D01*
X120092Y51934D01*
X120038Y51988D01*
X119989Y52047D01*
X119944Y52111D01*
X119900Y52180D01*
X119856Y52254D01*
X119821Y52337D01*
X119787Y52426D01*
X119757Y52519D01*
X119733Y52623D01*
X119713Y52731D01*
X119698Y52844D01*
X120294Y52913D01*
Y52903D01*
X120299Y52883D01*
X120308Y52849D01*
X120318Y52805D01*
X120333Y52751D01*
X120353Y52687D01*
X120382Y52623D01*
X120412Y52559D01*
X120451Y52495D01*
X120500Y52431D01*
X120549Y52367D01*
X120613Y52318D01*
X120682Y52268D01*
X120766Y52234D01*
X120854Y52214D01*
X120953Y52205D01*
X120997D01*
X121046Y52214D01*
X121110Y52224D01*
X121179Y52239D01*
X121253Y52264D01*
X121322Y52298D01*
X121386Y52347D01*
X121391Y52352D01*
X121410Y52372D01*
X121435Y52406D01*
X121469Y52446D01*
X121499Y52500D01*
X121524Y52559D01*
X121543Y52628D01*
X121548Y52706D01*
Y52711D01*
Y52726D01*
X121543Y52751D01*
Y52780D01*
X121524Y52854D01*
X121509Y52888D01*
X121489Y52923D01*
Y52928D01*
X121479Y52938D01*
X121465Y52952D01*
X121450Y52972D01*
X121425Y52997D01*
X121396Y53021D01*
X121361Y53046D01*
X121322Y53066D01*
X121317Y53070D01*
X121297Y53075D01*
X121263Y53090D01*
X121238Y53100D01*
X121209Y53110D01*
X121179Y53125D01*
X121140Y53139D01*
X121091Y53154D01*
X121041Y53174D01*
X120982Y53189D01*
X120918Y53213D01*
X120850Y53233D01*
X120771Y53257D01*
X120766D01*
X120756Y53262D01*
X120731Y53267D01*
X120707Y53277D01*
X120677Y53287D01*
X120638Y53302D01*
X120554Y53336D01*
X120461Y53371D01*
X120367Y53415D01*
X120279Y53464D01*
X120200Y53513D01*
X120190Y53518D01*
X120171Y53538D01*
X120136Y53572D01*
X120097Y53612D01*
X120048Y53666D01*
X120003Y53725D01*
X119954Y53799D01*
X119910Y53877D01*
Y53882D01*
X119905Y53887D01*
X119895Y53917D01*
X119875Y53961D01*
X119861Y54025D01*
X119841Y54094D01*
X119821Y54177D01*
X119811Y54271D01*
X119807Y54364D01*
Y54369D01*
Y54379D01*
Y54394D01*
Y54414D01*
X119811Y54443D01*
Y54473D01*
X119821Y54546D01*
X119841Y54630D01*
X119861Y54724D01*
X119895Y54817D01*
X119939Y54911D01*
Y54915D01*
X119944Y54920D01*
X119964Y54950D01*
X119993Y54994D01*
X120038Y55048D01*
X120092Y55107D01*
X120156Y55166D01*
X120235Y55225D01*
X120318Y55275D01*
X120323D01*
X120328Y55280D01*
X120343Y55285D01*
X120362Y55294D01*
X120387Y55304D01*
X120417Y55314D01*
X120485Y55339D01*
X120574Y55363D01*
X120677Y55383D01*
X120791Y55398D01*
X120918Y55403D01*
X120968D01*
X121007Y55398D01*
D02*
G37*
G36*
X102316D02*
X102360Y55393D01*
X102414Y55383D01*
X102468Y55373D01*
X102532Y55358D01*
X102596Y55339D01*
X102665Y55319D01*
X102739Y55289D01*
X102808Y55255D01*
X102882Y55216D01*
X102951Y55166D01*
X103024Y55117D01*
X103088Y55053D01*
X103093Y55048D01*
X103098Y55043D01*
X103113Y55029D01*
X103128Y55009D01*
X103147Y54979D01*
X103172Y54950D01*
X103197Y54911D01*
X103226Y54866D01*
X103251Y54817D01*
X103280Y54763D01*
X103310Y54704D01*
X103344Y54640D01*
X103369Y54566D01*
X103398Y54492D01*
X103423Y54409D01*
X103447Y54320D01*
X102842Y54143D01*
Y54148D01*
X102837Y54158D01*
Y54173D01*
X102832Y54192D01*
X102813Y54246D01*
X102793Y54310D01*
X102759Y54384D01*
X102719Y54463D01*
X102665Y54537D01*
X102606Y54601D01*
X102596Y54606D01*
X102577Y54625D01*
X102537Y54650D01*
X102493Y54684D01*
X102429Y54714D01*
X102360Y54738D01*
X102281Y54758D01*
X102198Y54763D01*
X102163D01*
X102144Y54758D01*
X102114Y54753D01*
X102080Y54748D01*
X102006Y54729D01*
X101917Y54689D01*
X101873Y54669D01*
X101829Y54640D01*
X101780Y54606D01*
X101735Y54566D01*
X101691Y54522D01*
X101652Y54468D01*
Y54463D01*
X101642Y54453D01*
X101632Y54438D01*
X101617Y54414D01*
X101602Y54379D01*
X101583Y54340D01*
X101568Y54296D01*
X101548Y54237D01*
X101529Y54177D01*
X101509Y54104D01*
X101489Y54025D01*
X101475Y53936D01*
X101460Y53843D01*
X101450Y53740D01*
X101445Y53626D01*
X101440Y53503D01*
Y53494D01*
Y53474D01*
Y53439D01*
X101445Y53390D01*
Y53331D01*
X101450Y53267D01*
X101460Y53193D01*
X101465Y53120D01*
X101489Y52952D01*
X101529Y52790D01*
X101553Y52711D01*
X101578Y52637D01*
X101612Y52569D01*
X101647Y52510D01*
X101652Y52505D01*
X101657Y52495D01*
X101666Y52480D01*
X101686Y52465D01*
X101730Y52416D01*
X101789Y52362D01*
X101868Y52308D01*
X101962Y52259D01*
X102011Y52244D01*
X102065Y52229D01*
X102124Y52219D01*
X102183Y52214D01*
X102193D01*
X102222Y52219D01*
X102267Y52224D01*
X102326Y52239D01*
X102390Y52259D01*
X102463Y52293D01*
X102532Y52337D01*
X102601Y52401D01*
X102611Y52411D01*
X102631Y52436D01*
X102660Y52480D01*
X102700Y52544D01*
X102744Y52628D01*
X102764Y52677D01*
X102783Y52731D01*
X102803Y52790D01*
X102823Y52854D01*
X102842Y52923D01*
X102857Y52997D01*
X103452Y52765D01*
Y52760D01*
X103447Y52741D01*
X103438Y52706D01*
X103423Y52662D01*
X103408Y52613D01*
X103389Y52554D01*
X103369Y52490D01*
X103339Y52421D01*
X103275Y52273D01*
X103197Y52121D01*
X103147Y52052D01*
X103098Y51983D01*
X103044Y51919D01*
X102985Y51860D01*
X102980Y51855D01*
X102970Y51850D01*
X102951Y51836D01*
X102926Y51816D01*
X102896Y51796D01*
X102857Y51772D01*
X102818Y51742D01*
X102769Y51718D01*
X102709Y51693D01*
X102650Y51663D01*
X102586Y51639D01*
X102518Y51619D01*
X102444Y51599D01*
X102365Y51590D01*
X102281Y51580D01*
X102193Y51575D01*
X102168D01*
X102134Y51580D01*
X102094D01*
X102045Y51590D01*
X101986Y51599D01*
X101922Y51614D01*
X101853Y51634D01*
X101775Y51653D01*
X101701Y51683D01*
X101617Y51722D01*
X101539Y51767D01*
X101460Y51816D01*
X101381Y51880D01*
X101307Y51949D01*
X101233Y52027D01*
X101229Y52032D01*
X101214Y52052D01*
X101194Y52082D01*
X101170Y52126D01*
X101135Y52180D01*
X101101Y52244D01*
X101061Y52318D01*
X101022Y52406D01*
X100983Y52500D01*
X100943Y52608D01*
X100909Y52726D01*
X100874Y52854D01*
X100850Y52992D01*
X100830Y53134D01*
X100815Y53292D01*
X100810Y53454D01*
Y53459D01*
Y53464D01*
Y53479D01*
Y53494D01*
X100815Y53543D01*
Y53612D01*
X100825Y53690D01*
X100835Y53784D01*
X100845Y53882D01*
X100865Y53995D01*
X100884Y54109D01*
X100914Y54232D01*
X100948Y54355D01*
X100988Y54478D01*
X101037Y54601D01*
X101096Y54719D01*
X101160Y54832D01*
X101233Y54935D01*
X101238Y54940D01*
X101253Y54955D01*
X101273Y54979D01*
X101302Y55009D01*
X101342Y55043D01*
X101386Y55083D01*
X101440Y55127D01*
X101499Y55171D01*
X101568Y55211D01*
X101642Y55255D01*
X101725Y55294D01*
X101814Y55329D01*
X101908Y55358D01*
X102011Y55383D01*
X102119Y55398D01*
X102232Y55403D01*
X102281D01*
X102316Y55398D01*
D02*
G37*
G36*
X143511Y51639D02*
X142970D01*
Y52027D01*
X142965Y52018D01*
X142945Y51988D01*
X142916Y51949D01*
X142876Y51899D01*
X142832Y51845D01*
X142778Y51791D01*
X142714Y51737D01*
X142650Y51688D01*
X142640Y51683D01*
X142621Y51668D01*
X142586Y51653D01*
X142537Y51634D01*
X142483Y51609D01*
X142419Y51595D01*
X142350Y51580D01*
X142281Y51575D01*
X142266D01*
X142247Y51580D01*
X142217D01*
X142188Y51585D01*
X142148Y51595D01*
X142065Y51619D01*
X142015Y51639D01*
X141961Y51663D01*
X141907Y51693D01*
X141853Y51727D01*
X141799Y51772D01*
X141745Y51821D01*
X141691Y51875D01*
X141637Y51939D01*
X141632Y51944D01*
X141627Y51959D01*
X141612Y51978D01*
X141592Y52008D01*
X141573Y52047D01*
X141553Y52091D01*
X141528Y52145D01*
X141504Y52210D01*
X141474Y52278D01*
X141450Y52357D01*
X141430Y52446D01*
X141410Y52539D01*
X141391Y52642D01*
X141376Y52751D01*
X141371Y52869D01*
X141366Y52992D01*
Y53002D01*
Y53021D01*
Y53056D01*
X141371Y53105D01*
X141376Y53159D01*
X141381Y53228D01*
X141391Y53302D01*
X141400Y53376D01*
X141430Y53543D01*
X141479Y53715D01*
X141509Y53799D01*
X141543Y53882D01*
X141587Y53956D01*
X141632Y54025D01*
X141637Y54030D01*
X141646Y54040D01*
X141661Y54059D01*
X141681Y54079D01*
X141705Y54109D01*
X141735Y54138D01*
X141774Y54168D01*
X141814Y54202D01*
X141907Y54266D01*
X142020Y54325D01*
X142084Y54345D01*
X142148Y54364D01*
X142217Y54374D01*
X142291Y54379D01*
X142320D01*
X142355Y54374D01*
X142404Y54369D01*
X142453Y54355D01*
X142512Y54340D01*
X142571Y54315D01*
X142630Y54286D01*
X142640Y54281D01*
X142660Y54266D01*
X142689Y54246D01*
X142729Y54217D01*
X142773Y54177D01*
X142827Y54128D01*
X142876Y54069D01*
X142930Y54005D01*
Y55339D01*
X143511D01*
Y51639D01*
D02*
G37*
G36*
X133647Y54374D02*
X133696Y54364D01*
X133755Y54345D01*
X133819Y54320D01*
X133888Y54286D01*
X133956Y54241D01*
X133774Y53626D01*
X133770Y53631D01*
X133750Y53646D01*
X133720Y53666D01*
X133686Y53685D01*
X133642Y53705D01*
X133597Y53725D01*
X133548Y53740D01*
X133499Y53745D01*
X133479D01*
X133455Y53740D01*
X133425Y53735D01*
X133391Y53720D01*
X133356Y53705D01*
X133317Y53681D01*
X133282Y53651D01*
X133277Y53646D01*
X133268Y53631D01*
X133253Y53612D01*
X133233Y53577D01*
X133213Y53533D01*
X133189Y53479D01*
X133169Y53410D01*
X133154Y53326D01*
Y53321D01*
Y53316D01*
X133150Y53302D01*
Y53282D01*
X133145Y53253D01*
Y53218D01*
X133140Y53179D01*
X133135Y53135D01*
X133130Y53075D01*
Y53016D01*
X133125Y52943D01*
X133120Y52864D01*
Y52780D01*
X133115Y52682D01*
Y52579D01*
Y52465D01*
Y51639D01*
X132535D01*
Y54315D01*
X133076D01*
Y53936D01*
X133081Y53941D01*
X133090Y53956D01*
X133100Y53976D01*
X133125Y54020D01*
X133159Y54074D01*
X133199Y54133D01*
X133238Y54192D01*
X133282Y54246D01*
X133322Y54286D01*
X133327Y54291D01*
X133341Y54300D01*
X133366Y54315D01*
X133396Y54335D01*
X133430Y54350D01*
X133474Y54364D01*
X133523Y54374D01*
X133573Y54379D01*
X133607D01*
X133647Y54374D01*
D02*
G37*
G36*
X126365D02*
X126424Y54364D01*
X126493Y54345D01*
X126567Y54325D01*
X126636Y54291D01*
X126704Y54246D01*
X126714Y54241D01*
X126734Y54222D01*
X126763Y54192D01*
X126803Y54153D01*
X126842Y54104D01*
X126882Y54045D01*
X126921Y53976D01*
X126950Y53902D01*
X126955Y53892D01*
X126960Y53863D01*
X126970Y53818D01*
X126985Y53750D01*
X126999Y53666D01*
X127009Y53562D01*
X127014Y53439D01*
X127019Y53302D01*
Y51639D01*
X126439D01*
Y53007D01*
Y53012D01*
Y53026D01*
Y53046D01*
Y53070D01*
Y53105D01*
Y53144D01*
X126434Y53228D01*
X126429Y53321D01*
X126424Y53410D01*
X126414Y53489D01*
X126409Y53523D01*
X126404Y53553D01*
Y53558D01*
X126399Y53577D01*
X126390Y53602D01*
X126375Y53631D01*
X126340Y53700D01*
X126311Y53735D01*
X126281Y53764D01*
X126276Y53769D01*
X126267Y53774D01*
X126247Y53789D01*
X126222Y53804D01*
X126193Y53813D01*
X126158Y53828D01*
X126119Y53833D01*
X126075Y53838D01*
X126050D01*
X126021Y53833D01*
X125986Y53828D01*
X125947Y53813D01*
X125902Y53799D01*
X125853Y53774D01*
X125809Y53740D01*
X125804Y53735D01*
X125789Y53725D01*
X125770Y53700D01*
X125745Y53671D01*
X125715Y53636D01*
X125691Y53592D01*
X125661Y53538D01*
X125642Y53479D01*
Y53469D01*
X125637Y53444D01*
X125632Y53425D01*
X125627Y53400D01*
X125622Y53371D01*
Y53336D01*
X125617Y53297D01*
X125612Y53253D01*
X125607Y53198D01*
X125602Y53144D01*
Y53080D01*
X125597Y53012D01*
Y52933D01*
Y52849D01*
Y51639D01*
X125017D01*
Y54315D01*
X125553D01*
Y53927D01*
X125558Y53931D01*
X125578Y53961D01*
X125607Y54000D01*
X125647Y54050D01*
X125696Y54104D01*
X125750Y54163D01*
X125809Y54212D01*
X125873Y54261D01*
X125883Y54266D01*
X125907Y54281D01*
X125942Y54300D01*
X125991Y54320D01*
X126050Y54340D01*
X126119Y54360D01*
X126198Y54374D01*
X126276Y54379D01*
X126321D01*
X126365Y54374D01*
D02*
G37*
G36*
X114281Y51639D02*
X113671D01*
Y53257D01*
X112466D01*
Y51639D01*
X111856D01*
Y55339D01*
X112466D01*
Y53882D01*
X113671D01*
Y55339D01*
X114281D01*
Y51639D01*
D02*
G37*
G36*
X128485Y54374D02*
X128525D01*
X128564Y54369D01*
X128663Y54360D01*
X128766Y54335D01*
X128874Y54305D01*
X128977Y54266D01*
X129027Y54237D01*
X129071Y54207D01*
X129076D01*
X129081Y54197D01*
X129110Y54177D01*
X129150Y54133D01*
X129194Y54079D01*
X129248Y54000D01*
X129302Y53907D01*
X129351Y53799D01*
X129391Y53666D01*
X128845Y53543D01*
Y53548D01*
X128840Y53558D01*
X128835Y53572D01*
X128830Y53592D01*
X128805Y53646D01*
X128766Y53705D01*
X128712Y53764D01*
X128677Y53794D01*
X128638Y53818D01*
X128594Y53838D01*
X128544Y53853D01*
X128490Y53863D01*
X128426Y53868D01*
X128392D01*
X128352Y53863D01*
X128308Y53858D01*
X128210Y53843D01*
X128161Y53823D01*
X128121Y53804D01*
X128116Y53799D01*
X128106Y53794D01*
X128092Y53779D01*
X128077Y53759D01*
X128048Y53710D01*
X128038Y53681D01*
X128033Y53646D01*
Y53641D01*
Y53631D01*
X128038Y53617D01*
X128043Y53597D01*
X128052Y53572D01*
X128067Y53548D01*
X128087Y53523D01*
X128112Y53499D01*
X128116Y53494D01*
X128131Y53489D01*
X128161Y53474D01*
X128180Y53464D01*
X128210Y53454D01*
X128239Y53439D01*
X128274Y53430D01*
X128318Y53415D01*
X128367Y53395D01*
X128421Y53380D01*
X128481Y53361D01*
X128549Y53341D01*
X128628Y53316D01*
X128633D01*
X128648Y53312D01*
X128672Y53302D01*
X128707Y53292D01*
X128746Y53277D01*
X128790Y53262D01*
X128894Y53223D01*
X129002Y53174D01*
X129115Y53120D01*
X129164Y53090D01*
X129214Y53056D01*
X129258Y53021D01*
X129292Y52987D01*
X129302Y52977D01*
X129322Y52952D01*
X129346Y52908D01*
X129381Y52849D01*
X129410Y52775D01*
X129440Y52682D01*
X129460Y52583D01*
X129464Y52465D01*
Y52460D01*
Y52451D01*
Y52426D01*
X129460Y52401D01*
X129455Y52367D01*
X129450Y52328D01*
X129430Y52239D01*
X129401Y52141D01*
X129351Y52032D01*
X129322Y51978D01*
X129282Y51924D01*
X129243Y51875D01*
X129194Y51826D01*
X129189Y51821D01*
X129184Y51816D01*
X129164Y51801D01*
X129145Y51786D01*
X129120Y51767D01*
X129086Y51747D01*
X129046Y51722D01*
X129002Y51703D01*
X128953Y51678D01*
X128899Y51653D01*
X128840Y51634D01*
X128771Y51614D01*
X128702Y51599D01*
X128628Y51585D01*
X128544Y51580D01*
X128461Y51575D01*
X128421D01*
X128392Y51580D01*
X128352D01*
X128313Y51585D01*
X128215Y51599D01*
X128106Y51624D01*
X127989Y51663D01*
X127875Y51713D01*
X127767Y51781D01*
X127762Y51786D01*
X127757Y51791D01*
X127743Y51806D01*
X127723Y51821D01*
X127679Y51870D01*
X127620Y51939D01*
X127560Y52022D01*
X127501Y52131D01*
X127452Y52254D01*
X127413Y52397D01*
X127993Y52510D01*
Y52505D01*
X127998Y52490D01*
X128003Y52470D01*
X128013Y52446D01*
X128023Y52411D01*
X128038Y52377D01*
X128082Y52298D01*
X128106Y52259D01*
X128141Y52219D01*
X128180Y52185D01*
X128220Y52150D01*
X128274Y52126D01*
X128328Y52106D01*
X128392Y52091D01*
X128461Y52087D01*
X128495D01*
X128530Y52091D01*
X128579Y52096D01*
X128628Y52106D01*
X128677Y52121D01*
X128726Y52141D01*
X128771Y52165D01*
X128776Y52170D01*
X128786Y52180D01*
X128805Y52200D01*
X128825Y52219D01*
X128845Y52254D01*
X128864Y52288D01*
X128874Y52328D01*
X128879Y52377D01*
Y52382D01*
Y52391D01*
Y52406D01*
X128874Y52426D01*
X128859Y52470D01*
X128830Y52514D01*
X128820Y52524D01*
X128810Y52534D01*
X128790Y52544D01*
X128766Y52559D01*
X128731Y52574D01*
X128692Y52588D01*
X128643Y52603D01*
X128633D01*
X128613Y52613D01*
X128574Y52623D01*
X128530Y52637D01*
X128471Y52652D01*
X128407Y52672D01*
X128333Y52692D01*
X128259Y52716D01*
X128106Y52775D01*
X128028Y52805D01*
X127954Y52834D01*
X127890Y52864D01*
X127826Y52898D01*
X127777Y52928D01*
X127733Y52962D01*
X127728Y52967D01*
X127723Y52972D01*
X127693Y53002D01*
X127659Y53051D01*
X127615Y53120D01*
X127570Y53203D01*
X127531Y53302D01*
X127501Y53420D01*
X127497Y53484D01*
X127492Y53553D01*
Y53558D01*
Y53567D01*
Y53587D01*
X127497Y53617D01*
Y53646D01*
X127506Y53685D01*
X127521Y53769D01*
X127551Y53863D01*
X127590Y53966D01*
X127649Y54064D01*
X127688Y54109D01*
X127728Y54153D01*
X127733Y54158D01*
X127738Y54163D01*
X127752Y54173D01*
X127772Y54187D01*
X127797Y54207D01*
X127826Y54227D01*
X127860Y54246D01*
X127905Y54266D01*
X127949Y54286D01*
X127998Y54305D01*
X128057Y54325D01*
X128116Y54345D01*
X128185Y54360D01*
X128259Y54369D01*
X128333Y54379D01*
X128456D01*
X128485Y54374D01*
D02*
G37*
G36*
X138306Y51639D02*
X137735D01*
Y54551D01*
X137135Y51639D01*
X136544D01*
X135949Y54551D01*
Y51639D01*
X135378D01*
Y55339D01*
X136293D01*
X136840Y52810D01*
X137381Y55339D01*
X138306D01*
Y51639D01*
D02*
G37*
G36*
X96230Y51639D02*
X95566D01*
X94488Y55339D01*
X95148D01*
X95915Y52598D01*
X96653Y55339D01*
X97312D01*
X96230Y51639D01*
D02*
G37*
G36*
X106341Y53794D02*
X107138D01*
Y53130D01*
X106341D01*
Y52170D01*
X105809D01*
Y53130D01*
X105012D01*
Y53794D01*
X105809D01*
Y54753D01*
X106341D01*
Y53794D01*
D02*
G37*
G36*
X146074Y51639D02*
X145533D01*
Y52037D01*
X145528Y52027D01*
X145513Y52003D01*
X145484Y51959D01*
X145449Y51909D01*
X145400Y51855D01*
X145346Y51801D01*
X145282Y51742D01*
X145213Y51693D01*
X145203Y51688D01*
X145179Y51673D01*
X145140Y51653D01*
X145090Y51634D01*
X145026Y51614D01*
X144957Y51595D01*
X144884Y51580D01*
X144805Y51575D01*
X144766D01*
X144726Y51580D01*
X144672Y51590D01*
X144613Y51604D01*
X144544Y51624D01*
X144480Y51649D01*
X144411Y51688D01*
X144406Y51693D01*
X144382Y51708D01*
X144352Y51737D01*
X144318Y51772D01*
X144279Y51816D01*
X144234Y51870D01*
X144195Y51934D01*
X144160Y52008D01*
Y52013D01*
X144156Y52018D01*
X144146Y52047D01*
X144136Y52096D01*
X144121Y52165D01*
X144102Y52249D01*
X144092Y52352D01*
X144082Y52475D01*
X144077Y52618D01*
Y54315D01*
X144657D01*
Y53080D01*
Y53075D01*
Y53056D01*
Y53031D01*
Y52997D01*
Y52952D01*
Y52908D01*
X144662Y52800D01*
Y52687D01*
X144667Y52579D01*
X144672Y52524D01*
Y52480D01*
X144677Y52441D01*
X144682Y52411D01*
Y52406D01*
X144687Y52387D01*
X144697Y52362D01*
X144707Y52333D01*
X144721Y52293D01*
X144741Y52259D01*
X144766Y52224D01*
X144795Y52190D01*
X144800Y52185D01*
X144810Y52180D01*
X144830Y52165D01*
X144859Y52155D01*
X144889Y52141D01*
X144928Y52126D01*
X144972Y52121D01*
X145017Y52116D01*
X145041D01*
X145071Y52121D01*
X145105Y52131D01*
X145149Y52141D01*
X145194Y52155D01*
X145238Y52180D01*
X145287Y52214D01*
X145292Y52219D01*
X145307Y52234D01*
X145332Y52254D01*
X145356Y52288D01*
X145386Y52323D01*
X145410Y52367D01*
X145435Y52421D01*
X145455Y52475D01*
Y52485D01*
X145459Y52495D01*
Y52510D01*
X145464Y52529D01*
X145469Y52554D01*
Y52588D01*
X145474Y52623D01*
X145479Y52667D01*
X145484Y52721D01*
Y52775D01*
X145489Y52844D01*
Y52918D01*
X145494Y52997D01*
Y53085D01*
Y53184D01*
Y54315D01*
X146074D01*
Y51639D01*
D02*
G37*
G36*
X147255D02*
X146675D01*
Y55339D01*
X147255D01*
Y51639D01*
D02*
G37*
G36*
X118276Y54714D02*
X117376D01*
Y51639D01*
X116766D01*
Y54714D01*
X115866D01*
Y55339D01*
X118276D01*
Y54714D01*
D02*
G37*
G36*
X110213Y55334D02*
X110257D01*
X110360Y55324D01*
X110478Y55314D01*
X110596Y55294D01*
X110705Y55270D01*
X110749Y55255D01*
X110793Y55235D01*
X110798D01*
X110803Y55230D01*
X110828Y55216D01*
X110867Y55191D01*
X110916Y55157D01*
X110970Y55107D01*
X111029Y55048D01*
X111088Y54975D01*
X111142Y54891D01*
Y54886D01*
X111147Y54881D01*
X111157Y54866D01*
X111162Y54847D01*
X111187Y54797D01*
X111211Y54724D01*
X111236Y54640D01*
X111260Y54537D01*
X111275Y54423D01*
X111280Y54300D01*
Y54296D01*
Y54281D01*
Y54261D01*
X111275Y54227D01*
Y54192D01*
X111270Y54148D01*
X111256Y54050D01*
X111231Y53941D01*
X111192Y53823D01*
X111137Y53710D01*
X111108Y53656D01*
X111069Y53602D01*
Y53597D01*
X111059Y53592D01*
X111029Y53558D01*
X110985Y53513D01*
X110916Y53459D01*
X110832Y53405D01*
X110734Y53351D01*
X110616Y53302D01*
X110478Y53267D01*
X110488Y53262D01*
X110513Y53243D01*
X110547Y53213D01*
X110591Y53179D01*
X110645Y53130D01*
X110700Y53080D01*
X110754Y53021D01*
X110803Y52957D01*
X110808Y52947D01*
X110828Y52923D01*
X110857Y52883D01*
X110872Y52854D01*
X110896Y52820D01*
X110916Y52780D01*
X110946Y52736D01*
X110975Y52687D01*
X111005Y52633D01*
X111039Y52574D01*
X111074Y52510D01*
X111113Y52436D01*
X111152Y52357D01*
X111521Y51639D01*
X110783D01*
X110345Y52441D01*
X110340Y52446D01*
X110336Y52460D01*
X110321Y52480D01*
X110306Y52510D01*
X110286Y52544D01*
X110267Y52583D01*
X110217Y52672D01*
X110163Y52765D01*
X110109Y52854D01*
X110085Y52898D01*
X110060Y52933D01*
X110040Y52962D01*
X110021Y52987D01*
X110016Y52992D01*
X110006Y53007D01*
X109991Y53026D01*
X109967Y53051D01*
X109907Y53100D01*
X109873Y53120D01*
X109839Y53139D01*
X109834D01*
X109819Y53144D01*
X109799Y53154D01*
X109765Y53164D01*
X109725Y53169D01*
X109671Y53179D01*
X109607Y53184D01*
X109411D01*
Y51639D01*
X108800D01*
Y55339D01*
X110168D01*
X110213Y55334D01*
D02*
G37*
G36*
X148766Y54374D02*
X148805Y54369D01*
X148849Y54360D01*
X148903Y54350D01*
X148958Y54335D01*
X149017Y54315D01*
X149076Y54296D01*
X149135Y54266D01*
X149199Y54232D01*
X149258Y54192D01*
X149317Y54143D01*
X149371Y54094D01*
X149425Y54030D01*
X149430Y54025D01*
X149440Y54010D01*
X149454Y53991D01*
X149474Y53956D01*
X149499Y53912D01*
X149523Y53863D01*
X149553Y53804D01*
X149582Y53735D01*
X149607Y53656D01*
X149636Y53567D01*
X149661Y53469D01*
X149686Y53366D01*
X149705Y53253D01*
X149720Y53130D01*
X149730Y52997D01*
X149735Y52854D01*
Y52775D01*
X148278D01*
Y52770D01*
Y52760D01*
Y52746D01*
X148284Y52721D01*
X148288Y52667D01*
X148298Y52593D01*
X148318Y52514D01*
X148343Y52431D01*
X148377Y52352D01*
X148421Y52278D01*
X148426Y52273D01*
X148446Y52254D01*
X148475Y52224D01*
X148515Y52195D01*
X148564Y52160D01*
X148618Y52136D01*
X148682Y52116D01*
X148751Y52106D01*
X148766D01*
X148775Y52111D01*
X148795D01*
X148844Y52126D01*
X148903Y52155D01*
X148933Y52175D01*
X148967Y52200D01*
X148997Y52229D01*
X149031Y52268D01*
X149056Y52313D01*
X149085Y52362D01*
X149110Y52421D01*
X149130Y52490D01*
X149705Y52372D01*
Y52367D01*
X149700Y52352D01*
X149691Y52333D01*
X149686Y52303D01*
X149671Y52273D01*
X149656Y52234D01*
X149617Y52145D01*
X149563Y52047D01*
X149504Y51944D01*
X149430Y51850D01*
X149385Y51806D01*
X149341Y51767D01*
X149336D01*
X149331Y51757D01*
X149317Y51747D01*
X149297Y51737D01*
X149272Y51722D01*
X149243Y51708D01*
X149174Y51673D01*
X149090Y51634D01*
X148987Y51604D01*
X148874Y51585D01*
X148746Y51575D01*
X148702D01*
X148667Y51580D01*
X148623Y51585D01*
X148579Y51595D01*
X148524Y51604D01*
X148470Y51614D01*
X148347Y51653D01*
X148284Y51678D01*
X148224Y51713D01*
X148161Y51747D01*
X148101Y51791D01*
X148047Y51841D01*
X147993Y51899D01*
X147988Y51904D01*
X147978Y51919D01*
X147964Y51939D01*
X147944Y51968D01*
X147919Y52008D01*
X147895Y52057D01*
X147865Y52111D01*
X147841Y52175D01*
X147811Y52244D01*
X147782Y52323D01*
X147757Y52411D01*
X147732Y52505D01*
X147713Y52608D01*
X147698Y52716D01*
X147688Y52834D01*
X147683Y52957D01*
Y52967D01*
Y52987D01*
Y53021D01*
X147688Y53070D01*
X147693Y53125D01*
X147698Y53193D01*
X147708Y53267D01*
X147723Y53346D01*
X147762Y53518D01*
X147787Y53607D01*
X147816Y53695D01*
X147851Y53784D01*
X147895Y53873D01*
X147944Y53956D01*
X147998Y54035D01*
X148003Y54040D01*
X148013Y54050D01*
X148028Y54064D01*
X148047Y54089D01*
X148072Y54114D01*
X148106Y54143D01*
X148141Y54177D01*
X148185Y54207D01*
X148229Y54241D01*
X148284Y54271D01*
X148401Y54325D01*
X148466Y54350D01*
X148534Y54364D01*
X148608Y54374D01*
X148687Y54379D01*
X148731D01*
X148766Y54374D01*
D02*
G37*
G36*
X139949D02*
X139988D01*
X140033Y54364D01*
X140082Y54360D01*
X140141Y54345D01*
X140200Y54325D01*
X140269Y54305D01*
X140333Y54276D01*
X140402Y54241D01*
X140471Y54202D01*
X140539Y54153D01*
X140608Y54099D01*
X140672Y54035D01*
X140731Y53961D01*
X140736Y53956D01*
X140746Y53941D01*
X140761Y53922D01*
X140780Y53887D01*
X140800Y53848D01*
X140830Y53799D01*
X140854Y53745D01*
X140884Y53685D01*
X140913Y53617D01*
X140938Y53543D01*
X140967Y53464D01*
X140987Y53376D01*
X141007Y53287D01*
X141022Y53193D01*
X141031Y53095D01*
X141036Y52992D01*
Y52987D01*
Y52972D01*
Y52952D01*
Y52923D01*
X141031Y52883D01*
X141026Y52844D01*
X141022Y52795D01*
X141017Y52741D01*
X140997Y52623D01*
X140967Y52500D01*
X140928Y52367D01*
X140874Y52239D01*
Y52234D01*
X140869Y52224D01*
X140859Y52210D01*
X140844Y52185D01*
X140810Y52126D01*
X140766Y52052D01*
X140702Y51973D01*
X140633Y51890D01*
X140554Y51811D01*
X140461Y51742D01*
X140456D01*
X140451Y51737D01*
X140436Y51727D01*
X140416Y51718D01*
X140362Y51688D01*
X140293Y51658D01*
X140210Y51629D01*
X140116Y51599D01*
X140013Y51580D01*
X139900Y51575D01*
X139880D01*
X139851Y51580D01*
X139821D01*
X139777Y51585D01*
X139728Y51595D01*
X139673Y51604D01*
X139614Y51624D01*
X139555Y51644D01*
X139487Y51668D01*
X139423Y51698D01*
X139354Y51732D01*
X139285Y51776D01*
X139216Y51826D01*
X139152Y51885D01*
X139088Y51949D01*
X139083Y51954D01*
X139073Y51968D01*
X139058Y51988D01*
X139039Y52018D01*
X139014Y52057D01*
X138985Y52101D01*
X138960Y52160D01*
X138930Y52224D01*
X138896Y52293D01*
X138872Y52372D01*
X138842Y52460D01*
X138817Y52554D01*
X138798Y52657D01*
X138783Y52770D01*
X138773Y52889D01*
X138768Y53012D01*
Y53016D01*
Y53031D01*
Y53051D01*
X138773Y53080D01*
Y53115D01*
X138778Y53154D01*
X138783Y53198D01*
X138788Y53248D01*
X138807Y53361D01*
X138832Y53479D01*
X138872Y53607D01*
X138921Y53730D01*
Y53735D01*
X138930Y53745D01*
X138935Y53759D01*
X138950Y53784D01*
X138985Y53843D01*
X139029Y53912D01*
X139088Y53991D01*
X139162Y54074D01*
X139241Y54148D01*
X139329Y54217D01*
X139334D01*
X139339Y54222D01*
X139354Y54232D01*
X139373Y54241D01*
X139427Y54266D01*
X139496Y54300D01*
X139580Y54330D01*
X139678Y54355D01*
X139787Y54374D01*
X139900Y54379D01*
X139924D01*
X139949Y54374D01*
D02*
G37*
G36*
X131009D02*
X131049D01*
X131093Y54364D01*
X131142Y54360D01*
X131201Y54345D01*
X131260Y54325D01*
X131329Y54305D01*
X131393Y54276D01*
X131462Y54241D01*
X131531Y54202D01*
X131600Y54153D01*
X131669Y54099D01*
X131733Y54035D01*
X131792Y53961D01*
X131797Y53956D01*
X131806Y53941D01*
X131821Y53922D01*
X131841Y53887D01*
X131860Y53848D01*
X131890Y53799D01*
X131915Y53745D01*
X131944Y53685D01*
X131974Y53617D01*
X131998Y53543D01*
X132028Y53464D01*
X132047Y53376D01*
X132067Y53287D01*
X132082Y53193D01*
X132092Y53095D01*
X132097Y52992D01*
Y52987D01*
Y52972D01*
Y52952D01*
Y52923D01*
X132092Y52883D01*
X132087Y52844D01*
X132082Y52795D01*
X132077Y52741D01*
X132057Y52623D01*
X132028Y52500D01*
X131988Y52367D01*
X131934Y52239D01*
Y52234D01*
X131929Y52224D01*
X131920Y52210D01*
X131905Y52185D01*
X131870Y52126D01*
X131826Y52052D01*
X131762Y51973D01*
X131693Y51890D01*
X131614Y51811D01*
X131521Y51742D01*
X131516D01*
X131511Y51737D01*
X131496Y51727D01*
X131477Y51718D01*
X131423Y51688D01*
X131354Y51658D01*
X131270Y51629D01*
X131177Y51599D01*
X131073Y51580D01*
X130960Y51575D01*
X130940D01*
X130911Y51580D01*
X130881D01*
X130837Y51585D01*
X130788Y51595D01*
X130734Y51604D01*
X130675Y51624D01*
X130616Y51644D01*
X130547Y51668D01*
X130483Y51698D01*
X130414Y51732D01*
X130345Y51776D01*
X130276Y51826D01*
X130212Y51885D01*
X130148Y51949D01*
X130143Y51954D01*
X130134Y51968D01*
X130119Y51988D01*
X130099Y52018D01*
X130075Y52057D01*
X130045Y52101D01*
X130020Y52160D01*
X129991Y52224D01*
X129956Y52293D01*
X129932Y52372D01*
X129902Y52460D01*
X129878Y52554D01*
X129858Y52657D01*
X129843Y52770D01*
X129833Y52889D01*
X129829Y53012D01*
Y53016D01*
Y53031D01*
Y53051D01*
X129833Y53080D01*
Y53115D01*
X129838Y53154D01*
X129843Y53198D01*
X129848Y53248D01*
X129868Y53361D01*
X129893Y53479D01*
X129932Y53607D01*
X129981Y53730D01*
Y53735D01*
X129991Y53745D01*
X129996Y53759D01*
X130011Y53784D01*
X130045Y53843D01*
X130089Y53912D01*
X130148Y53991D01*
X130222Y54074D01*
X130301Y54148D01*
X130389Y54217D01*
X130394D01*
X130399Y54222D01*
X130414Y54232D01*
X130434Y54241D01*
X130488Y54266D01*
X130557Y54300D01*
X130640Y54330D01*
X130739Y54355D01*
X130847Y54374D01*
X130960Y54379D01*
X130985D01*
X131009Y54374D01*
D02*
G37*
G36*
X123585D02*
X123624Y54369D01*
X123669Y54360D01*
X123723Y54350D01*
X123777Y54335D01*
X123836Y54315D01*
X123895Y54296D01*
X123954Y54266D01*
X124018Y54232D01*
X124077Y54192D01*
X124136Y54143D01*
X124190Y54094D01*
X124244Y54030D01*
X124249Y54025D01*
X124259Y54010D01*
X124274Y53991D01*
X124294Y53956D01*
X124318Y53912D01*
X124343Y53863D01*
X124372Y53804D01*
X124402Y53735D01*
X124426Y53656D01*
X124456Y53567D01*
X124480Y53469D01*
X124505Y53366D01*
X124525Y53253D01*
X124540Y53130D01*
X124549Y52997D01*
X124554Y52854D01*
Y52775D01*
X123098D01*
Y52770D01*
Y52760D01*
Y52746D01*
X123103Y52721D01*
X123108Y52667D01*
X123118Y52593D01*
X123137Y52514D01*
X123162Y52431D01*
X123196Y52352D01*
X123241Y52278D01*
X123246Y52273D01*
X123265Y52254D01*
X123295Y52224D01*
X123334Y52195D01*
X123383Y52160D01*
X123438Y52136D01*
X123501Y52116D01*
X123570Y52106D01*
X123585D01*
X123595Y52111D01*
X123615D01*
X123664Y52126D01*
X123723Y52155D01*
X123752Y52175D01*
X123787Y52200D01*
X123816Y52229D01*
X123851Y52268D01*
X123875Y52313D01*
X123905Y52362D01*
X123930Y52421D01*
X123949Y52490D01*
X124525Y52372D01*
Y52367D01*
X124520Y52352D01*
X124510Y52333D01*
X124505Y52303D01*
X124490Y52273D01*
X124476Y52234D01*
X124436Y52145D01*
X124382Y52047D01*
X124323Y51944D01*
X124249Y51850D01*
X124205Y51806D01*
X124161Y51767D01*
X124156D01*
X124151Y51757D01*
X124136Y51747D01*
X124116Y51737D01*
X124092Y51722D01*
X124062Y51708D01*
X123993Y51673D01*
X123910Y51634D01*
X123807Y51604D01*
X123693Y51585D01*
X123565Y51575D01*
X123521D01*
X123487Y51580D01*
X123442Y51585D01*
X123398Y51595D01*
X123344Y51604D01*
X123290Y51614D01*
X123167Y51653D01*
X123103Y51678D01*
X123044Y51713D01*
X122980Y51747D01*
X122921Y51791D01*
X122867Y51841D01*
X122813Y51899D01*
X122808Y51904D01*
X122798Y51919D01*
X122783Y51939D01*
X122763Y51968D01*
X122739Y52008D01*
X122714Y52057D01*
X122685Y52111D01*
X122660Y52175D01*
X122631Y52244D01*
X122601Y52323D01*
X122576Y52411D01*
X122552Y52505D01*
X122532Y52608D01*
X122517Y52716D01*
X122508Y52834D01*
X122503Y52957D01*
Y52967D01*
Y52987D01*
Y53021D01*
X122508Y53070D01*
X122512Y53125D01*
X122517Y53193D01*
X122527Y53267D01*
X122542Y53346D01*
X122581Y53518D01*
X122606Y53607D01*
X122635Y53695D01*
X122670Y53784D01*
X122714Y53872D01*
X122763Y53956D01*
X122818Y54035D01*
X122822Y54040D01*
X122832Y54050D01*
X122847Y54064D01*
X122867Y54089D01*
X122891Y54114D01*
X122926Y54143D01*
X122960Y54177D01*
X123004Y54207D01*
X123049Y54241D01*
X123103Y54271D01*
X123221Y54325D01*
X123285Y54350D01*
X123354Y54364D01*
X123428Y54374D01*
X123506Y54379D01*
X123551D01*
X123585Y54374D01*
D02*
G37*
G36*
X115024Y51575D02*
X114596D01*
X115344Y55403D01*
X115782D01*
X115024Y51575D01*
D02*
G37*
G36*
X99029Y55398D02*
X99074Y55393D01*
X99128Y55388D01*
X99192Y55378D01*
X99265Y55358D01*
X99339Y55339D01*
X99423Y55314D01*
X99511Y55280D01*
X99595Y55240D01*
X99684Y55191D01*
X99772Y55132D01*
X99861Y55068D01*
X99945Y54989D01*
X100023Y54901D01*
X100028Y54896D01*
X100043Y54876D01*
X100063Y54847D01*
X100087Y54807D01*
X100122Y54758D01*
X100156Y54694D01*
X100190Y54620D01*
X100230Y54537D01*
X100269Y54443D01*
X100304Y54340D01*
X100343Y54222D01*
X100373Y54094D01*
X100397Y53961D01*
X100417Y53813D01*
X100432Y53656D01*
X100436Y53489D01*
Y53484D01*
Y53479D01*
Y53464D01*
Y53449D01*
X100432Y53400D01*
Y53336D01*
X100422Y53257D01*
X100412Y53169D01*
X100402Y53066D01*
X100382Y52957D01*
X100358Y52844D01*
X100328Y52726D01*
X100294Y52603D01*
X100250Y52480D01*
X100200Y52362D01*
X100141Y52244D01*
X100077Y52136D01*
X99999Y52032D01*
X99994Y52027D01*
X99979Y52013D01*
X99959Y51988D01*
X99930Y51964D01*
X99890Y51924D01*
X99846Y51890D01*
X99792Y51845D01*
X99728Y51806D01*
X99659Y51762D01*
X99580Y51718D01*
X99497Y51683D01*
X99403Y51649D01*
X99305Y51619D01*
X99197Y51595D01*
X99084Y51580D01*
X98965Y51575D01*
X98936D01*
X98901Y51580D01*
X98857D01*
X98803Y51590D01*
X98739Y51599D01*
X98665Y51614D01*
X98586Y51634D01*
X98508Y51653D01*
X98424Y51683D01*
X98336Y51722D01*
X98247Y51767D01*
X98163Y51816D01*
X98080Y51880D01*
X98001Y51949D01*
X97927Y52027D01*
X97922Y52032D01*
X97908Y52052D01*
X97888Y52082D01*
X97858Y52126D01*
X97829Y52175D01*
X97790Y52244D01*
X97750Y52318D01*
X97711Y52406D01*
X97671Y52500D01*
X97632Y52608D01*
X97593Y52726D01*
X97563Y52854D01*
X97534Y52992D01*
X97514Y53139D01*
X97499Y53297D01*
X97494Y53464D01*
Y53474D01*
Y53494D01*
Y53528D01*
X97499Y53572D01*
Y53631D01*
X97504Y53695D01*
X97509Y53769D01*
X97519Y53848D01*
X97529Y53931D01*
X97544Y54020D01*
X97573Y54202D01*
X97622Y54384D01*
X97652Y54468D01*
X97686Y54551D01*
Y54556D01*
X97696Y54571D01*
X97706Y54591D01*
X97721Y54620D01*
X97740Y54660D01*
X97765Y54699D01*
X97824Y54792D01*
X97898Y54896D01*
X97986Y55004D01*
X98085Y55102D01*
X98139Y55147D01*
X98198Y55191D01*
X98203Y55196D01*
X98213Y55201D01*
X98232Y55211D01*
X98252Y55225D01*
X98286Y55240D01*
X98321Y55260D01*
X98365Y55280D01*
X98414Y55299D01*
X98463Y55319D01*
X98523Y55334D01*
X98655Y55368D01*
X98803Y55393D01*
X98882Y55403D01*
X98995D01*
X99029Y55398D01*
D02*
G37*
G36*
X51915Y54992D02*
X51953Y54988D01*
X52000Y54984D01*
X52047Y54975D01*
X52102Y54967D01*
X52218Y54937D01*
X52281Y54916D01*
X52341Y54890D01*
X52401Y54860D01*
X52456Y54830D01*
X52511Y54788D01*
X52562Y54745D01*
X52567Y54741D01*
X52575Y54733D01*
X52588Y54720D01*
X52605Y54698D01*
X52622Y54673D01*
X52648Y54643D01*
X52669Y54605D01*
X52695Y54562D01*
X52720Y54515D01*
X52746Y54460D01*
X52767Y54400D01*
X52788Y54336D01*
X52810Y54268D01*
X52822Y54196D01*
X52835Y54115D01*
X52839Y54030D01*
X52307Y54000D01*
Y54004D01*
Y54013D01*
X52303Y54025D01*
X52298Y54042D01*
X52290Y54085D01*
X52273Y54140D01*
X52251Y54200D01*
X52226Y54260D01*
X52192Y54315D01*
X52154Y54358D01*
X52149Y54362D01*
X52132Y54375D01*
X52107Y54392D01*
X52068Y54409D01*
X52021Y54426D01*
X51966Y54443D01*
X51902Y54456D01*
X51825Y54460D01*
X51792D01*
X51753Y54456D01*
X51706Y54447D01*
X51651Y54439D01*
X51595Y54422D01*
X51544Y54400D01*
X51498Y54370D01*
X51493Y54366D01*
X51481Y54353D01*
X51459Y54336D01*
X51442Y54311D01*
X51421Y54277D01*
X51399Y54238D01*
X51387Y54191D01*
X51382Y54145D01*
Y54140D01*
Y54123D01*
X51387Y54098D01*
X51395Y54068D01*
X51408Y54034D01*
X51425Y54000D01*
X51451Y53961D01*
X51485Y53927D01*
X51489Y53923D01*
X51506Y53910D01*
X51536Y53893D01*
X51557Y53881D01*
X51583Y53868D01*
X51613Y53855D01*
X51647Y53838D01*
X51685Y53821D01*
X51732Y53804D01*
X51783Y53787D01*
X51838Y53770D01*
X51898Y53749D01*
X51966Y53727D01*
X51970D01*
X51983Y53723D01*
X52004Y53714D01*
X52030Y53706D01*
X52064Y53697D01*
X52102Y53685D01*
X52188Y53655D01*
X52281Y53616D01*
X52379Y53578D01*
X52464Y53531D01*
X52507Y53510D01*
X52541Y53484D01*
X52550Y53480D01*
X52571Y53463D01*
X52601Y53433D01*
X52644Y53395D01*
X52686Y53348D01*
X52733Y53288D01*
X52776Y53224D01*
X52814Y53152D01*
Y53148D01*
X52818Y53144D01*
X52822Y53131D01*
X52831Y53118D01*
X52844Y53075D01*
X52865Y53016D01*
X52882Y52948D01*
X52895Y52862D01*
X52908Y52769D01*
X52912Y52666D01*
Y52662D01*
Y52649D01*
Y52628D01*
X52908Y52598D01*
X52903Y52560D01*
X52899Y52517D01*
X52890Y52475D01*
X52878Y52424D01*
X52848Y52313D01*
X52827Y52253D01*
X52801Y52194D01*
X52771Y52134D01*
X52737Y52074D01*
X52699Y52019D01*
X52652Y51964D01*
X52648Y51959D01*
X52639Y51951D01*
X52626Y51938D01*
X52605Y51921D01*
X52575Y51900D01*
X52541Y51874D01*
X52503Y51849D01*
X52456Y51823D01*
X52405Y51797D01*
X52345Y51772D01*
X52277Y51746D01*
X52205Y51725D01*
X52128Y51708D01*
X52043Y51695D01*
X51949Y51687D01*
X51851Y51682D01*
X51825D01*
X51809Y51687D01*
X51787D01*
X51762Y51691D01*
X51698Y51699D01*
X51625Y51717D01*
X51540Y51742D01*
X51451Y51776D01*
X51357Y51819D01*
X51263Y51878D01*
X51165Y51951D01*
X51123Y51993D01*
X51076Y52040D01*
X51033Y52091D01*
X50995Y52147D01*
X50956Y52206D01*
X50918Y52270D01*
X50888Y52343D01*
X50858Y52419D01*
X50833Y52500D01*
X50812Y52590D01*
X50795Y52684D01*
X50782Y52781D01*
X51297Y52841D01*
Y52833D01*
X51302Y52816D01*
X51310Y52786D01*
X51319Y52747D01*
X51331Y52701D01*
X51348Y52645D01*
X51374Y52590D01*
X51399Y52534D01*
X51434Y52479D01*
X51476Y52424D01*
X51519Y52368D01*
X51574Y52326D01*
X51634Y52283D01*
X51706Y52253D01*
X51783Y52236D01*
X51868Y52228D01*
X51907D01*
X51949Y52236D01*
X52004Y52245D01*
X52064Y52258D01*
X52128Y52279D01*
X52188Y52309D01*
X52243Y52351D01*
X52247Y52355D01*
X52264Y52372D01*
X52286Y52402D01*
X52315Y52436D01*
X52341Y52483D01*
X52362Y52534D01*
X52379Y52594D01*
X52384Y52662D01*
Y52666D01*
Y52679D01*
X52379Y52701D01*
Y52726D01*
X52362Y52790D01*
X52350Y52820D01*
X52333Y52850D01*
Y52854D01*
X52324Y52862D01*
X52311Y52875D01*
X52298Y52892D01*
X52277Y52913D01*
X52251Y52935D01*
X52222Y52956D01*
X52188Y52973D01*
X52183Y52977D01*
X52166Y52982D01*
X52136Y52995D01*
X52115Y53003D01*
X52090Y53012D01*
X52064Y53024D01*
X52030Y53037D01*
X51987Y53050D01*
X51945Y53067D01*
X51894Y53080D01*
X51838Y53101D01*
X51779Y53118D01*
X51710Y53139D01*
X51706D01*
X51698Y53144D01*
X51676Y53148D01*
X51655Y53156D01*
X51630Y53165D01*
X51595Y53178D01*
X51523Y53207D01*
X51442Y53237D01*
X51361Y53276D01*
X51284Y53318D01*
X51216Y53361D01*
X51208Y53365D01*
X51191Y53382D01*
X51161Y53412D01*
X51127Y53446D01*
X51084Y53493D01*
X51046Y53544D01*
X51003Y53608D01*
X50965Y53676D01*
Y53680D01*
X50961Y53685D01*
X50952Y53710D01*
X50935Y53749D01*
X50922Y53804D01*
X50905Y53864D01*
X50888Y53936D01*
X50880Y54017D01*
X50876Y54098D01*
Y54102D01*
Y54111D01*
Y54123D01*
Y54140D01*
X50880Y54166D01*
Y54191D01*
X50888Y54255D01*
X50905Y54328D01*
X50922Y54409D01*
X50952Y54490D01*
X50991Y54571D01*
Y54575D01*
X50995Y54579D01*
X51012Y54605D01*
X51037Y54643D01*
X51076Y54690D01*
X51123Y54741D01*
X51178Y54792D01*
X51246Y54843D01*
X51319Y54886D01*
X51323D01*
X51327Y54890D01*
X51340Y54894D01*
X51357Y54903D01*
X51378Y54912D01*
X51404Y54920D01*
X51463Y54941D01*
X51540Y54963D01*
X51630Y54980D01*
X51728Y54992D01*
X51838Y54997D01*
X51881D01*
X51915Y54992D01*
D02*
G37*
G36*
X54650D02*
X54693Y54988D01*
X54735Y54984D01*
X54786Y54975D01*
X54842Y54967D01*
X54961Y54937D01*
X55025Y54920D01*
X55089Y54894D01*
X55148Y54865D01*
X55212Y54835D01*
X55268Y54796D01*
X55323Y54754D01*
X55327Y54750D01*
X55336Y54741D01*
X55349Y54728D01*
X55370Y54711D01*
X55391Y54686D01*
X55417Y54656D01*
X55446Y54618D01*
X55476Y54579D01*
X55506Y54532D01*
X55536Y54477D01*
X55570Y54422D01*
X55600Y54358D01*
X55625Y54290D01*
X55651Y54217D01*
X55672Y54140D01*
X55689Y54055D01*
X55165Y53936D01*
Y53940D01*
X55161Y53949D01*
X55157Y53957D01*
X55153Y53974D01*
X55140Y54021D01*
X55114Y54072D01*
X55084Y54136D01*
X55050Y54196D01*
X55003Y54255D01*
X54948Y54311D01*
X54940Y54315D01*
X54918Y54332D01*
X54888Y54353D01*
X54842Y54379D01*
X54786Y54400D01*
X54722Y54422D01*
X54650Y54439D01*
X54569Y54443D01*
X54535D01*
X54514Y54439D01*
X54484Y54434D01*
X54450Y54430D01*
X54373Y54409D01*
X54288Y54379D01*
X54241Y54358D01*
X54198Y54332D01*
X54151Y54302D01*
X54109Y54264D01*
X54066Y54226D01*
X54024Y54179D01*
X54019Y54175D01*
X54015Y54166D01*
X54007Y54149D01*
X53990Y54128D01*
X53977Y54102D01*
X53960Y54068D01*
X53939Y54025D01*
X53922Y53979D01*
X53900Y53927D01*
X53883Y53868D01*
X53862Y53800D01*
X53849Y53727D01*
X53836Y53650D01*
X53824Y53565D01*
X53819Y53472D01*
X53815Y53374D01*
Y53365D01*
Y53348D01*
Y53318D01*
X53819Y53280D01*
X53824Y53229D01*
X53828Y53173D01*
X53832Y53114D01*
X53845Y53046D01*
X53870Y52905D01*
X53909Y52760D01*
X53934Y52688D01*
X53968Y52620D01*
X54002Y52556D01*
X54041Y52496D01*
X54045Y52492D01*
X54049Y52483D01*
X54062Y52470D01*
X54075Y52458D01*
X54117Y52415D01*
X54177Y52368D01*
X54254Y52317D01*
X54343Y52279D01*
X54394Y52262D01*
X54445Y52249D01*
X54505Y52240D01*
X54565Y52236D01*
X54590D01*
X54620Y52240D01*
X54663Y52245D01*
X54710Y52253D01*
X54765Y52266D01*
X54825Y52283D01*
X54884Y52309D01*
X54893Y52313D01*
X54914Y52321D01*
X54944Y52338D01*
X54987Y52360D01*
X55033Y52390D01*
X55084Y52424D01*
X55136Y52462D01*
X55187Y52505D01*
Y52913D01*
X54582D01*
Y53455D01*
X55723D01*
Y52176D01*
Y52172D01*
X55715Y52168D01*
X55689Y52143D01*
X55651Y52104D01*
X55596Y52057D01*
X55528Y52002D01*
X55442Y51942D01*
X55344Y51883D01*
X55229Y51827D01*
X55225D01*
X55216Y51823D01*
X55199Y51814D01*
X55174Y51806D01*
X55148Y51793D01*
X55114Y51780D01*
X55076Y51768D01*
X55033Y51755D01*
X54935Y51729D01*
X54829Y51704D01*
X54718Y51687D01*
X54599Y51682D01*
X54561D01*
X54535Y51687D01*
X54501D01*
X54458Y51691D01*
X54416Y51699D01*
X54365Y51708D01*
X54258Y51729D01*
X54143Y51763D01*
X54024Y51810D01*
X53964Y51836D01*
X53909Y51870D01*
X53904Y51874D01*
X53896Y51878D01*
X53879Y51891D01*
X53862Y51904D01*
X53836Y51925D01*
X53806Y51951D01*
X53777Y51981D01*
X53738Y52015D01*
X53704Y52053D01*
X53666Y52096D01*
X53628Y52143D01*
X53589Y52194D01*
X53547Y52249D01*
X53513Y52309D01*
X53474Y52372D01*
X53440Y52441D01*
Y52445D01*
X53432Y52458D01*
X53423Y52479D01*
X53414Y52509D01*
X53402Y52547D01*
X53385Y52590D01*
X53372Y52641D01*
X53355Y52696D01*
X53338Y52760D01*
X53325Y52828D01*
X53308Y52905D01*
X53295Y52982D01*
X53287Y53067D01*
X53278Y53156D01*
X53270Y53344D01*
Y53348D01*
Y53369D01*
Y53395D01*
X53274Y53433D01*
Y53476D01*
X53278Y53531D01*
X53282Y53591D01*
X53291Y53655D01*
X53299Y53723D01*
X53312Y53795D01*
X53342Y53949D01*
X53385Y54102D01*
X53444Y54247D01*
X53449Y54251D01*
X53453Y54264D01*
X53461Y54281D01*
X53474Y54307D01*
X53496Y54341D01*
X53513Y54375D01*
X53568Y54460D01*
X53632Y54549D01*
X53708Y54643D01*
X53798Y54733D01*
X53849Y54771D01*
X53900Y54809D01*
X53904Y54813D01*
X53913Y54818D01*
X53930Y54826D01*
X53951Y54839D01*
X53977Y54852D01*
X54011Y54869D01*
X54049Y54886D01*
X54092Y54903D01*
X54139Y54920D01*
X54190Y54937D01*
X54305Y54967D01*
X54433Y54988D01*
X54501Y54997D01*
X54620D01*
X54650Y54992D01*
D02*
G37*
G36*
X60022Y52922D02*
X60346D01*
Y52381D01*
X60022D01*
Y51738D01*
X59536D01*
Y52381D01*
X58458D01*
Y52918D01*
X59596Y54950D01*
X60022D01*
Y52922D01*
D02*
G37*
G36*
X57219Y54937D02*
X57317D01*
X57423Y54928D01*
X57525Y54920D01*
X57572Y54916D01*
X57615Y54912D01*
X57653Y54903D01*
X57683Y54894D01*
X57687D01*
X57692Y54890D01*
X57704Y54886D01*
X57721Y54877D01*
X57764Y54856D01*
X57819Y54826D01*
X57879Y54784D01*
X57947Y54728D01*
X58011Y54660D01*
X58071Y54575D01*
Y54571D01*
X58079Y54562D01*
X58083Y54549D01*
X58096Y54532D01*
X58105Y54507D01*
X58118Y54481D01*
X58135Y54447D01*
X58147Y54409D01*
X58160Y54366D01*
X58177Y54319D01*
X58198Y54213D01*
X58215Y54089D01*
X58224Y53953D01*
Y53949D01*
Y53936D01*
Y53919D01*
Y53893D01*
X58220Y53864D01*
X58215Y53829D01*
X58207Y53749D01*
X58190Y53659D01*
X58169Y53561D01*
X58135Y53463D01*
X58092Y53369D01*
Y53365D01*
X58088Y53361D01*
X58079Y53348D01*
X58066Y53331D01*
X58041Y53288D01*
X58003Y53241D01*
X57956Y53186D01*
X57896Y53131D01*
X57836Y53084D01*
X57764Y53041D01*
X57760D01*
X57756Y53037D01*
X57743Y53033D01*
X57726Y53029D01*
X57704Y53020D01*
X57679Y53012D01*
X57645Y53003D01*
X57606Y52995D01*
X57564Y52986D01*
X57513Y52977D01*
X57457Y52969D01*
X57398Y52960D01*
X57329Y52956D01*
X57253Y52952D01*
X57172Y52948D01*
X56742D01*
Y51738D01*
X56213D01*
Y54941D01*
X57176D01*
X57219Y54937D01*
D02*
G37*
G36*
X61470Y54945D02*
X61496D01*
X61530Y54937D01*
X61564Y54928D01*
X61607Y54920D01*
X61653Y54903D01*
X61700Y54886D01*
X61751Y54860D01*
X61803Y54830D01*
X61854Y54796D01*
X61905Y54754D01*
X61956Y54703D01*
X62003Y54647D01*
X62050Y54583D01*
X62054Y54579D01*
X62058Y54566D01*
X62071Y54545D01*
X62088Y54511D01*
X62105Y54473D01*
X62126Y54422D01*
X62147Y54362D01*
X62169Y54290D01*
X62190Y54209D01*
X62211Y54115D01*
X62233Y54013D01*
X62250Y53893D01*
X62267Y53770D01*
X62280Y53629D01*
X62284Y53476D01*
X62288Y53314D01*
Y53310D01*
Y53305D01*
Y53293D01*
Y53276D01*
Y53229D01*
X62284Y53165D01*
X62280Y53092D01*
X62275Y53007D01*
X62267Y52913D01*
X62258Y52816D01*
X62229Y52607D01*
X62211Y52500D01*
X62186Y52394D01*
X62160Y52296D01*
X62130Y52202D01*
X62092Y52117D01*
X62050Y52044D01*
X62045Y52040D01*
X62037Y52027D01*
X62024Y52010D01*
X62007Y51989D01*
X61986Y51959D01*
X61956Y51929D01*
X61922Y51895D01*
X61883Y51866D01*
X61845Y51832D01*
X61798Y51797D01*
X61692Y51738D01*
X61632Y51717D01*
X61572Y51699D01*
X61504Y51687D01*
X61436Y51682D01*
X61419D01*
X61398Y51687D01*
X61372D01*
X61338Y51695D01*
X61304Y51699D01*
X61261Y51712D01*
X61215Y51729D01*
X61168Y51746D01*
X61117Y51772D01*
X61066Y51797D01*
X61014Y51832D01*
X60963Y51874D01*
X60912Y51921D01*
X60865Y51976D01*
X60818Y52040D01*
X60814Y52044D01*
X60810Y52057D01*
X60797Y52079D01*
X60780Y52113D01*
X60763Y52151D01*
X60746Y52202D01*
X60725Y52266D01*
X60703Y52334D01*
X60678Y52419D01*
X60656Y52513D01*
X60640Y52615D01*
X60622Y52730D01*
X60605Y52862D01*
X60593Y52999D01*
X60588Y53152D01*
X60584Y53318D01*
Y53322D01*
Y53327D01*
Y53339D01*
Y53357D01*
Y53403D01*
X60588Y53463D01*
X60593Y53540D01*
X60597Y53625D01*
X60605Y53714D01*
X60614Y53817D01*
X60640Y54025D01*
X60682Y54234D01*
X60712Y54332D01*
X60742Y54426D01*
X60776Y54511D01*
X60818Y54583D01*
X60823Y54588D01*
X60831Y54601D01*
X60844Y54618D01*
X60861Y54639D01*
X60887Y54669D01*
X60912Y54698D01*
X60946Y54733D01*
X60984Y54767D01*
X61027Y54801D01*
X61070Y54835D01*
X61121Y54865D01*
X61176Y54894D01*
X61236Y54916D01*
X61295Y54933D01*
X61364Y54945D01*
X61432Y54950D01*
X61449D01*
X61470Y54945D01*
D02*
G37*
G36*
X150978Y29141D02*
X151050Y29136D01*
X151135Y29132D01*
X151229Y29124D01*
X151327Y29115D01*
X151535Y29085D01*
X151642Y29068D01*
X151749Y29043D01*
X151847Y29017D01*
X151940Y28987D01*
X152025Y28949D01*
X152098Y28907D01*
X152102Y28902D01*
X152115Y28894D01*
X152132Y28881D01*
X152153Y28864D01*
X152183Y28843D01*
X152213Y28813D01*
X152247Y28779D01*
X152277Y28740D01*
X152311Y28702D01*
X152345Y28655D01*
X152405Y28549D01*
X152426Y28489D01*
X152443Y28429D01*
X152456Y28361D01*
X152460Y28293D01*
Y28276D01*
X152456Y28255D01*
Y28229D01*
X152447Y28195D01*
X152443Y28161D01*
X152430Y28118D01*
X152413Y28071D01*
X152396Y28025D01*
X152371Y27973D01*
X152345Y27922D01*
X152311Y27871D01*
X152268Y27820D01*
X152221Y27769D01*
X152166Y27722D01*
X152102Y27675D01*
X152098Y27671D01*
X152085Y27667D01*
X152064Y27654D01*
X152030Y27637D01*
X151991Y27620D01*
X151940Y27603D01*
X151876Y27582D01*
X151808Y27560D01*
X151723Y27535D01*
X151629Y27514D01*
X151527Y27496D01*
X151412Y27479D01*
X151280Y27462D01*
X151144Y27450D01*
X150990Y27445D01*
X150824Y27441D01*
X150820D01*
X150816D01*
X150803D01*
X150786D01*
X150739D01*
X150679Y27445D01*
X150603Y27450D01*
X150517Y27454D01*
X150428Y27462D01*
X150326Y27471D01*
X150117Y27496D01*
X149908Y27539D01*
X149810Y27569D01*
X149716Y27599D01*
X149631Y27633D01*
X149559Y27675D01*
X149555Y27680D01*
X149542Y27688D01*
X149525Y27701D01*
X149504Y27718D01*
X149474Y27744D01*
X149444Y27769D01*
X149410Y27803D01*
X149376Y27841D01*
X149342Y27884D01*
X149308Y27927D01*
X149278Y27978D01*
X149248Y28033D01*
X149227Y28093D01*
X149210Y28152D01*
X149197Y28221D01*
X149193Y28289D01*
Y28306D01*
X149197Y28327D01*
Y28353D01*
X149205Y28387D01*
X149214Y28421D01*
X149222Y28463D01*
X149239Y28510D01*
X149256Y28557D01*
X149282Y28608D01*
X149312Y28659D01*
X149346Y28710D01*
X149389Y28762D01*
X149440Y28813D01*
X149495Y28860D01*
X149559Y28907D01*
X149563Y28911D01*
X149576Y28915D01*
X149597Y28928D01*
X149631Y28945D01*
X149670Y28962D01*
X149721Y28983D01*
X149780Y29004D01*
X149853Y29026D01*
X149934Y29047D01*
X150028Y29068D01*
X150130Y29090D01*
X150249Y29107D01*
X150373Y29124D01*
X150513Y29136D01*
X150666Y29141D01*
X150828Y29145D01*
X150833D01*
X150837D01*
X150850D01*
X150867D01*
X150914D01*
X150978Y29141D01*
D02*
G37*
G36*
X151761Y26879D02*
X152405D01*
Y26393D01*
X151761D01*
Y25315D01*
X151225D01*
X149193Y26453D01*
Y26879D01*
X151220D01*
Y27202D01*
X151761D01*
Y26879D01*
D02*
G37*
G36*
X149742Y24391D02*
X152405D01*
Y23863D01*
X149742D01*
Y23083D01*
X149201D01*
Y25170D01*
X149742D01*
Y24391D01*
D02*
G37*
G36*
X152405Y22201D02*
X151003D01*
Y21158D01*
X152405D01*
Y20629D01*
X149201D01*
Y21158D01*
X150462D01*
Y22201D01*
X149201D01*
Y22729D01*
X152405D01*
Y22201D01*
D02*
G37*
G36*
X151544Y20178D02*
X151582Y20174D01*
X151625Y20169D01*
X151668Y20161D01*
X151719Y20148D01*
X151830Y20118D01*
X151889Y20097D01*
X151949Y20071D01*
X152008Y20041D01*
X152068Y20007D01*
X152123Y19969D01*
X152179Y19922D01*
X152183Y19918D01*
X152192Y19909D01*
X152204Y19897D01*
X152221Y19875D01*
X152243Y19846D01*
X152268Y19811D01*
X152294Y19773D01*
X152319Y19726D01*
X152345Y19675D01*
X152371Y19615D01*
X152396Y19547D01*
X152417Y19475D01*
X152434Y19398D01*
X152447Y19313D01*
X152456Y19219D01*
X152460Y19121D01*
Y19096D01*
X152456Y19079D01*
Y19057D01*
X152451Y19032D01*
X152443Y18968D01*
X152426Y18895D01*
X152400Y18810D01*
X152366Y18721D01*
X152324Y18627D01*
X152264Y18533D01*
X152192Y18435D01*
X152149Y18393D01*
X152102Y18346D01*
X152051Y18303D01*
X151996Y18265D01*
X151936Y18227D01*
X151872Y18188D01*
X151800Y18158D01*
X151723Y18129D01*
X151642Y18103D01*
X151553Y18082D01*
X151459Y18065D01*
X151361Y18052D01*
X151301Y18567D01*
X151310D01*
X151327Y18572D01*
X151357Y18580D01*
X151395Y18589D01*
X151442Y18601D01*
X151497Y18619D01*
X151553Y18644D01*
X151608Y18670D01*
X151663Y18704D01*
X151719Y18746D01*
X151774Y18789D01*
X151817Y18844D01*
X151859Y18904D01*
X151889Y18976D01*
X151906Y19053D01*
X151915Y19138D01*
Y19177D01*
X151906Y19219D01*
X151898Y19275D01*
X151885Y19334D01*
X151864Y19398D01*
X151834Y19458D01*
X151791Y19513D01*
X151787Y19517D01*
X151770Y19534D01*
X151740Y19556D01*
X151706Y19586D01*
X151659Y19611D01*
X151608Y19633D01*
X151548Y19649D01*
X151480Y19654D01*
X151476D01*
X151463D01*
X151442Y19649D01*
X151416D01*
X151352Y19633D01*
X151322Y19620D01*
X151293Y19603D01*
X151288D01*
X151280Y19594D01*
X151267Y19581D01*
X151250Y19569D01*
X151229Y19547D01*
X151207Y19522D01*
X151186Y19492D01*
X151169Y19458D01*
X151165Y19454D01*
X151161Y19436D01*
X151148Y19407D01*
X151139Y19385D01*
X151131Y19360D01*
X151118Y19334D01*
X151105Y19300D01*
X151093Y19258D01*
X151075Y19215D01*
X151063Y19164D01*
X151041Y19108D01*
X151024Y19049D01*
X151003Y18981D01*
Y18976D01*
X150999Y18968D01*
X150995Y18947D01*
X150986Y18925D01*
X150978Y18900D01*
X150965Y18866D01*
X150935Y18793D01*
X150905Y18712D01*
X150867Y18631D01*
X150824Y18555D01*
X150782Y18486D01*
X150777Y18478D01*
X150760Y18461D01*
X150730Y18431D01*
X150696Y18397D01*
X150649Y18354D01*
X150598Y18316D01*
X150534Y18273D01*
X150466Y18235D01*
X150462D01*
X150458Y18231D01*
X150432Y18222D01*
X150394Y18205D01*
X150338Y18193D01*
X150279Y18176D01*
X150206Y18158D01*
X150126Y18150D01*
X150045Y18146D01*
X150040D01*
X150032D01*
X150019D01*
X150002D01*
X149976Y18150D01*
X149951D01*
X149887Y18158D01*
X149814Y18176D01*
X149733Y18193D01*
X149653Y18222D01*
X149572Y18261D01*
X149567D01*
X149563Y18265D01*
X149538Y18282D01*
X149499Y18308D01*
X149452Y18346D01*
X149401Y18393D01*
X149350Y18448D01*
X149299Y18516D01*
X149256Y18589D01*
Y18593D01*
X149252Y18597D01*
X149248Y18610D01*
X149239Y18627D01*
X149231Y18648D01*
X149222Y18674D01*
X149201Y18734D01*
X149180Y18810D01*
X149163Y18900D01*
X149150Y18998D01*
X149146Y19108D01*
Y19151D01*
X149150Y19185D01*
X149154Y19223D01*
X149158Y19270D01*
X149167Y19317D01*
X149176Y19373D01*
X149205Y19488D01*
X149227Y19552D01*
X149252Y19611D01*
X149282Y19671D01*
X149312Y19726D01*
X149354Y19782D01*
X149397Y19833D01*
X149401Y19837D01*
X149410Y19846D01*
X149423Y19858D01*
X149444Y19875D01*
X149469Y19892D01*
X149499Y19918D01*
X149538Y19939D01*
X149580Y19965D01*
X149627Y19990D01*
X149682Y20016D01*
X149742Y20037D01*
X149806Y20058D01*
X149874Y20080D01*
X149946Y20092D01*
X150028Y20105D01*
X150113Y20110D01*
X150143Y19577D01*
X150138D01*
X150130D01*
X150117Y19573D01*
X150100Y19569D01*
X150057Y19560D01*
X150002Y19543D01*
X149942Y19522D01*
X149883Y19496D01*
X149827Y19462D01*
X149785Y19424D01*
X149780Y19420D01*
X149768Y19402D01*
X149751Y19377D01*
X149733Y19339D01*
X149716Y19292D01*
X149699Y19236D01*
X149687Y19172D01*
X149682Y19096D01*
Y19062D01*
X149687Y19023D01*
X149695Y18976D01*
X149704Y18921D01*
X149721Y18866D01*
X149742Y18814D01*
X149772Y18768D01*
X149776Y18763D01*
X149789Y18751D01*
X149806Y18729D01*
X149831Y18712D01*
X149866Y18691D01*
X149904Y18670D01*
X149951Y18657D01*
X149998Y18653D01*
X150002D01*
X150019D01*
X150045Y18657D01*
X150074Y18665D01*
X150108Y18678D01*
X150143Y18695D01*
X150181Y18721D01*
X150215Y18755D01*
X150219Y18759D01*
X150232Y18776D01*
X150249Y18806D01*
X150262Y18827D01*
X150275Y18853D01*
X150287Y18883D01*
X150304Y18917D01*
X150321Y18955D01*
X150338Y19002D01*
X150356Y19053D01*
X150373Y19108D01*
X150394Y19168D01*
X150415Y19236D01*
Y19241D01*
X150419Y19253D01*
X150428Y19275D01*
X150436Y19300D01*
X150445Y19334D01*
X150458Y19373D01*
X150488Y19458D01*
X150526Y19552D01*
X150564Y19649D01*
X150611Y19735D01*
X150632Y19777D01*
X150658Y19811D01*
X150662Y19820D01*
X150679Y19841D01*
X150709Y19871D01*
X150747Y19914D01*
X150794Y19956D01*
X150854Y20003D01*
X150918Y20046D01*
X150990Y20084D01*
X150995D01*
X150999Y20088D01*
X151012Y20092D01*
X151024Y20101D01*
X151067Y20114D01*
X151127Y20135D01*
X151195Y20152D01*
X151280Y20165D01*
X151374Y20178D01*
X151476Y20182D01*
X151480D01*
X151493D01*
X151514D01*
X151544Y20178D01*
D02*
G37*
%LPC*%
G36*
X145285Y48470D02*
X144354Y46791D01*
X145285D01*
Y48470D01*
D02*
G37*
G36*
X148250Y49133D02*
X148198D01*
X148172Y49126D01*
X148132Y49120D01*
X148080Y49093D01*
X148021Y49061D01*
X147962Y49002D01*
X147896Y48929D01*
X147870Y48877D01*
X147844Y48825D01*
Y48818D01*
X147837Y48811D01*
X147830Y48792D01*
X147824Y48759D01*
X147811Y48719D01*
X147804Y48667D01*
X147791Y48608D01*
X147778Y48536D01*
X147765Y48444D01*
X147752Y48346D01*
X147745Y48228D01*
X147732Y48096D01*
X147725Y47945D01*
X147719Y47781D01*
X147712Y47598D01*
Y47394D01*
Y47381D01*
Y47348D01*
Y47289D01*
Y47211D01*
X147719Y47125D01*
Y47020D01*
X147725Y46909D01*
X147732Y46791D01*
X147745Y46548D01*
X147758Y46424D01*
X147765Y46312D01*
X147784Y46200D01*
X147798Y46109D01*
X147824Y46023D01*
X147844Y45958D01*
X147850Y45945D01*
X147870Y45912D01*
X147903Y45866D01*
X147942Y45813D01*
X147994Y45754D01*
X148060Y45708D01*
X148132Y45676D01*
X148172Y45669D01*
X148211Y45663D01*
X148224D01*
X148250Y45669D01*
X148290Y45676D01*
X148342Y45702D01*
X148401Y45735D01*
X148460Y45787D01*
X148519Y45866D01*
X148546Y45912D01*
X148572Y45964D01*
Y45971D01*
X148578Y45977D01*
X148585Y45997D01*
X148591Y46030D01*
X148605Y46069D01*
X148618Y46122D01*
X148631Y46181D01*
X148644Y46259D01*
X148651Y46345D01*
X148664Y46443D01*
X148677Y46561D01*
X148690Y46692D01*
X148696Y46843D01*
X148703Y47007D01*
X148709Y47191D01*
Y47394D01*
Y47401D01*
Y47407D01*
Y47447D01*
Y47499D01*
Y47578D01*
X148703Y47663D01*
Y47768D01*
X148696Y47880D01*
X148690Y47998D01*
X148677Y48241D01*
X148664Y48359D01*
X148651Y48477D01*
X148637Y48582D01*
X148618Y48674D01*
X148598Y48759D01*
X148572Y48825D01*
Y48831D01*
X148565Y48838D01*
X148546Y48870D01*
X148519Y48923D01*
X148480Y48982D01*
X148427Y49034D01*
X148362Y49087D01*
X148290Y49120D01*
X148250Y49133D01*
D02*
G37*
G36*
X142443Y53838D02*
X142434D01*
X142409Y53833D01*
X142375Y53828D01*
X142325Y53813D01*
X142271Y53789D01*
X142212Y53754D01*
X142153Y53705D01*
X142099Y53636D01*
X142094Y53626D01*
X142079Y53597D01*
X142055Y53553D01*
X142030Y53484D01*
X142006Y53400D01*
X141981Y53297D01*
X141966Y53179D01*
X141961Y53036D01*
Y53031D01*
Y53021D01*
Y53002D01*
Y52977D01*
Y52947D01*
X141966Y52913D01*
X141971Y52829D01*
X141976Y52741D01*
X141986Y52652D01*
X142001Y52564D01*
X142020Y52490D01*
X142025Y52480D01*
X142030Y52460D01*
X142045Y52431D01*
X142065Y52391D01*
X142094Y52347D01*
X142124Y52303D01*
X142158Y52264D01*
X142197Y52224D01*
X142202Y52219D01*
X142217Y52210D01*
X142242Y52195D01*
X142271Y52180D01*
X142311Y52165D01*
X142355Y52150D01*
X142404Y52141D01*
X142458Y52136D01*
X142468D01*
X142493Y52141D01*
X142527Y52145D01*
X142571Y52160D01*
X142625Y52185D01*
X142680Y52224D01*
X142734Y52273D01*
X142788Y52342D01*
X142793Y52352D01*
X142812Y52382D01*
X142832Y52431D01*
X142862Y52500D01*
X142886Y52583D01*
X142896Y52637D01*
X142911Y52692D01*
X142916Y52756D01*
X142926Y52820D01*
X142930Y52893D01*
Y52967D01*
Y52972D01*
Y52987D01*
Y53012D01*
Y53041D01*
X142926Y53080D01*
Y53125D01*
X142916Y53223D01*
X142896Y53331D01*
X142871Y53444D01*
X142837Y53543D01*
X142817Y53592D01*
X142793Y53631D01*
X142788Y53641D01*
X142768Y53666D01*
X142739Y53695D01*
X142699Y53735D01*
X142645Y53774D01*
X142586Y53804D01*
X142517Y53828D01*
X142443Y53838D01*
D02*
G37*
G36*
X110026Y54714D02*
X109411D01*
Y53774D01*
X110001D01*
X110085Y53779D01*
X110178Y53784D01*
X110262Y53789D01*
X110306Y53794D01*
X110340Y53799D01*
X110370Y53804D01*
X110395Y53808D01*
X110399D01*
X110414Y53813D01*
X110434Y53823D01*
X110459Y53838D01*
X110488Y53858D01*
X110518Y53887D01*
X110547Y53917D01*
X110577Y53956D01*
X110582Y53961D01*
X110586Y53976D01*
X110601Y54000D01*
X110616Y54035D01*
X110626Y54079D01*
X110641Y54128D01*
X110645Y54187D01*
X110650Y54251D01*
Y54261D01*
Y54281D01*
X110645Y54315D01*
X110641Y54355D01*
X110631Y54399D01*
X110621Y54448D01*
X110601Y54492D01*
X110577Y54537D01*
X110572Y54542D01*
X110562Y54556D01*
X110547Y54571D01*
X110527Y54596D01*
X110498Y54620D01*
X110468Y54645D01*
X110429Y54665D01*
X110385Y54684D01*
X110380D01*
X110365Y54689D01*
X110336Y54694D01*
X110291Y54699D01*
X110262Y54704D01*
X110227D01*
X110188Y54709D01*
X110090D01*
X110026Y54714D01*
D02*
G37*
G36*
X148721Y53838D02*
X148692D01*
X148657Y53828D01*
X148613Y53818D01*
X148564Y53799D01*
X148515Y53769D01*
X148461Y53725D01*
X148411Y53671D01*
X148407Y53661D01*
X148392Y53641D01*
X148372Y53602D01*
X148347Y53553D01*
X148328Y53484D01*
X148308Y53405D01*
X148293Y53312D01*
X148288Y53208D01*
X149159D01*
Y53213D01*
Y53223D01*
Y53238D01*
X149154Y53257D01*
X149149Y53316D01*
X149140Y53385D01*
X149120Y53459D01*
X149095Y53538D01*
X149066Y53612D01*
X149021Y53676D01*
X149017Y53681D01*
X149002Y53700D01*
X148972Y53725D01*
X148938Y53759D01*
X148894Y53789D01*
X148844Y53813D01*
X148785Y53833D01*
X148721Y53838D01*
D02*
G37*
G36*
X139934Y53804D02*
X139885D01*
X139860Y53799D01*
X139816Y53794D01*
X139767Y53779D01*
X139708Y53754D01*
X139644Y53715D01*
X139580Y53661D01*
X139550Y53631D01*
X139521Y53592D01*
X139516Y53582D01*
X139496Y53553D01*
X139472Y53503D01*
X139442Y53435D01*
X139413Y53351D01*
X139388Y53243D01*
X139368Y53120D01*
X139364Y52977D01*
Y52972D01*
Y52957D01*
Y52938D01*
X139368Y52908D01*
Y52874D01*
X139373Y52839D01*
X139383Y52746D01*
X139403Y52647D01*
X139432Y52544D01*
X139467Y52446D01*
X139521Y52357D01*
X139526Y52347D01*
X139550Y52323D01*
X139585Y52293D01*
X139629Y52254D01*
X139683Y52214D01*
X139747Y52185D01*
X139821Y52160D01*
X139905Y52150D01*
X139915D01*
X139944Y52155D01*
X139983Y52160D01*
X140038Y52175D01*
X140097Y52200D01*
X140161Y52239D01*
X140225Y52288D01*
X140284Y52357D01*
Y52362D01*
X140288Y52367D01*
X140298Y52382D01*
X140308Y52397D01*
X140333Y52446D01*
X140362Y52514D01*
X140392Y52603D01*
X140416Y52711D01*
X140436Y52834D01*
X140441Y52982D01*
Y52987D01*
Y53002D01*
Y53021D01*
Y53046D01*
X140436Y53080D01*
X140431Y53120D01*
X140421Y53208D01*
X140402Y53307D01*
X140372Y53410D01*
X140333Y53503D01*
X140279Y53592D01*
Y53597D01*
X140274Y53602D01*
X140249Y53626D01*
X140215Y53661D01*
X140170Y53700D01*
X140116Y53735D01*
X140052Y53769D01*
X139979Y53794D01*
X139934Y53804D01*
D02*
G37*
G36*
X130995D02*
X130945D01*
X130921Y53799D01*
X130877Y53794D01*
X130827Y53779D01*
X130768Y53754D01*
X130704Y53715D01*
X130640Y53661D01*
X130611Y53631D01*
X130581Y53592D01*
X130576Y53582D01*
X130557Y53553D01*
X130532Y53503D01*
X130503Y53435D01*
X130473Y53351D01*
X130448Y53243D01*
X130429Y53120D01*
X130424Y52977D01*
Y52972D01*
Y52957D01*
Y52938D01*
X130429Y52908D01*
Y52874D01*
X130434Y52839D01*
X130444Y52746D01*
X130463Y52647D01*
X130493Y52544D01*
X130527Y52446D01*
X130581Y52357D01*
X130586Y52347D01*
X130611Y52323D01*
X130645Y52293D01*
X130690Y52254D01*
X130744Y52214D01*
X130808Y52185D01*
X130881Y52160D01*
X130965Y52150D01*
X130975D01*
X131004Y52155D01*
X131044Y52160D01*
X131098Y52175D01*
X131157Y52200D01*
X131221Y52239D01*
X131285Y52288D01*
X131344Y52357D01*
Y52362D01*
X131349Y52367D01*
X131359Y52382D01*
X131369Y52397D01*
X131393Y52446D01*
X131423Y52514D01*
X131452Y52603D01*
X131477Y52711D01*
X131496Y52834D01*
X131501Y52982D01*
Y52987D01*
Y53002D01*
Y53021D01*
Y53046D01*
X131496Y53080D01*
X131491Y53120D01*
X131482Y53208D01*
X131462Y53307D01*
X131432Y53410D01*
X131393Y53503D01*
X131339Y53592D01*
Y53597D01*
X131334Y53602D01*
X131309Y53626D01*
X131275Y53661D01*
X131231Y53700D01*
X131177Y53735D01*
X131113Y53769D01*
X131039Y53794D01*
X130995Y53804D01*
D02*
G37*
G36*
X123541Y53838D02*
X123511D01*
X123477Y53828D01*
X123433Y53818D01*
X123383Y53799D01*
X123334Y53769D01*
X123280Y53725D01*
X123231Y53671D01*
X123226Y53661D01*
X123211Y53641D01*
X123191Y53602D01*
X123167Y53553D01*
X123147Y53484D01*
X123127Y53405D01*
X123113Y53312D01*
X123108Y53208D01*
X123979D01*
Y53213D01*
Y53223D01*
Y53238D01*
X123974Y53257D01*
X123969Y53316D01*
X123959Y53385D01*
X123939Y53459D01*
X123915Y53538D01*
X123885Y53612D01*
X123841Y53676D01*
X123836Y53681D01*
X123821Y53700D01*
X123792Y53725D01*
X123757Y53759D01*
X123713Y53789D01*
X123664Y53813D01*
X123605Y53833D01*
X123541Y53838D01*
D02*
G37*
G36*
X98965Y54763D02*
X98931D01*
X98901Y54758D01*
X98872Y54753D01*
X98833Y54748D01*
X98749Y54724D01*
X98650Y54684D01*
X98601Y54660D01*
X98552Y54630D01*
X98498Y54596D01*
X98449Y54551D01*
X98400Y54502D01*
X98355Y54448D01*
Y54443D01*
X98346Y54433D01*
X98336Y54414D01*
X98321Y54389D01*
X98301Y54355D01*
X98282Y54315D01*
X98262Y54266D01*
X98242Y54212D01*
X98218Y54148D01*
X98198Y54079D01*
X98178Y54000D01*
X98159Y53912D01*
X98144Y53818D01*
X98134Y53715D01*
X98129Y53607D01*
X98124Y53489D01*
Y53484D01*
Y53459D01*
Y53430D01*
X98129Y53385D01*
X98134Y53331D01*
X98139Y53267D01*
X98144Y53203D01*
X98154Y53130D01*
X98183Y52972D01*
X98227Y52815D01*
X98252Y52736D01*
X98286Y52662D01*
X98321Y52593D01*
X98365Y52529D01*
X98370Y52524D01*
X98375Y52514D01*
X98390Y52500D01*
X98409Y52480D01*
X98434Y52456D01*
X98459Y52431D01*
X98532Y52372D01*
X98616Y52313D01*
X98719Y52264D01*
X98778Y52244D01*
X98838Y52229D01*
X98901Y52219D01*
X98965Y52214D01*
X99000D01*
X99024Y52219D01*
X99059Y52224D01*
X99093Y52229D01*
X99177Y52254D01*
X99270Y52293D01*
X99320Y52318D01*
X99374Y52347D01*
X99423Y52382D01*
X99472Y52426D01*
X99521Y52475D01*
X99566Y52529D01*
X99571Y52534D01*
X99576Y52544D01*
X99590Y52564D01*
X99605Y52588D01*
X99620Y52623D01*
X99644Y52662D01*
X99664Y52711D01*
X99689Y52770D01*
X99708Y52834D01*
X99733Y52903D01*
X99753Y52987D01*
X99767Y53075D01*
X99787Y53169D01*
X99797Y53272D01*
X99802Y53385D01*
X99807Y53503D01*
Y53513D01*
Y53533D01*
Y53562D01*
X99802Y53607D01*
Y53661D01*
X99797Y53720D01*
X99787Y53789D01*
X99777Y53863D01*
X99748Y54015D01*
X99708Y54173D01*
X99649Y54325D01*
X99610Y54389D01*
X99571Y54453D01*
X99566Y54458D01*
X99561Y54468D01*
X99546Y54483D01*
X99531Y54502D01*
X99477Y54551D01*
X99408Y54610D01*
X99320Y54665D01*
X99216Y54714D01*
X99162Y54733D01*
X99098Y54748D01*
X99034Y54758D01*
X98965Y54763D01*
D02*
G37*
G36*
X59536Y54013D02*
X58931Y52922D01*
X59536D01*
Y54013D01*
D02*
G37*
G36*
X57112Y54400D02*
X56742D01*
Y53489D01*
X57078D01*
X57129Y53493D01*
X57193D01*
X57261Y53497D01*
X57329Y53506D01*
X57389Y53514D01*
X57415Y53518D01*
X57436Y53527D01*
X57440Y53531D01*
X57453Y53535D01*
X57474Y53548D01*
X57500Y53561D01*
X57525Y53582D01*
X57555Y53608D01*
X57585Y53638D01*
X57611Y53676D01*
X57615Y53680D01*
X57623Y53697D01*
X57632Y53719D01*
X57645Y53753D01*
X57657Y53791D01*
X57670Y53838D01*
X57674Y53889D01*
X57679Y53944D01*
Y53953D01*
Y53970D01*
X57674Y54000D01*
X57670Y54038D01*
X57662Y54081D01*
X57649Y54128D01*
X57632Y54170D01*
X57606Y54213D01*
X57602Y54217D01*
X57594Y54230D01*
X57581Y54251D01*
X57560Y54273D01*
X57534Y54298D01*
X57504Y54324D01*
X57470Y54345D01*
X57432Y54362D01*
X57427D01*
X57410Y54366D01*
X57381Y54375D01*
X57338Y54383D01*
X57312D01*
X57283Y54387D01*
X57244Y54392D01*
X57206Y54396D01*
X57159D01*
X57112Y54400D01*
D02*
G37*
G36*
X61462Y54443D02*
X61428D01*
X61410Y54439D01*
X61385Y54434D01*
X61351Y54417D01*
X61313Y54396D01*
X61274Y54358D01*
X61232Y54311D01*
X61215Y54277D01*
X61198Y54243D01*
Y54238D01*
X61193Y54234D01*
X61189Y54221D01*
X61185Y54200D01*
X61176Y54175D01*
X61172Y54140D01*
X61164Y54102D01*
X61155Y54055D01*
X61146Y53996D01*
X61138Y53932D01*
X61134Y53855D01*
X61125Y53770D01*
X61121Y53672D01*
X61117Y53565D01*
X61112Y53446D01*
Y53314D01*
Y53305D01*
Y53284D01*
Y53246D01*
Y53195D01*
X61117Y53139D01*
Y53071D01*
X61121Y52999D01*
X61125Y52922D01*
X61134Y52764D01*
X61142Y52684D01*
X61146Y52611D01*
X61159Y52539D01*
X61168Y52479D01*
X61185Y52424D01*
X61198Y52381D01*
X61202Y52372D01*
X61215Y52351D01*
X61236Y52321D01*
X61261Y52287D01*
X61295Y52249D01*
X61338Y52219D01*
X61385Y52198D01*
X61410Y52194D01*
X61436Y52189D01*
X61445D01*
X61462Y52194D01*
X61487Y52198D01*
X61521Y52215D01*
X61560Y52236D01*
X61598Y52270D01*
X61636Y52321D01*
X61653Y52351D01*
X61670Y52385D01*
Y52390D01*
X61675Y52394D01*
X61679Y52407D01*
X61683Y52428D01*
X61692Y52453D01*
X61700Y52487D01*
X61709Y52526D01*
X61717Y52577D01*
X61721Y52632D01*
X61730Y52696D01*
X61739Y52773D01*
X61747Y52858D01*
X61751Y52956D01*
X61756Y53063D01*
X61760Y53182D01*
Y53314D01*
Y53318D01*
Y53322D01*
Y53348D01*
Y53382D01*
Y53433D01*
X61756Y53489D01*
Y53557D01*
X61751Y53629D01*
X61747Y53706D01*
X61739Y53864D01*
X61730Y53940D01*
X61721Y54017D01*
X61713Y54085D01*
X61700Y54145D01*
X61687Y54200D01*
X61670Y54243D01*
Y54247D01*
X61666Y54251D01*
X61653Y54273D01*
X61636Y54307D01*
X61611Y54345D01*
X61577Y54379D01*
X61534Y54413D01*
X61487Y54434D01*
X61462Y54443D01*
D02*
G37*
G36*
X150960Y28617D02*
X150828D01*
X150824D01*
X150820D01*
X150794D01*
X150760D01*
X150709D01*
X150654Y28613D01*
X150585D01*
X150513Y28608D01*
X150436Y28604D01*
X150279Y28596D01*
X150202Y28587D01*
X150126Y28578D01*
X150057Y28570D01*
X149998Y28557D01*
X149942Y28544D01*
X149900Y28527D01*
X149895D01*
X149891Y28523D01*
X149870Y28510D01*
X149836Y28493D01*
X149797Y28468D01*
X149763Y28434D01*
X149729Y28391D01*
X149708Y28344D01*
X149699Y28319D01*
Y28284D01*
X149704Y28267D01*
X149708Y28242D01*
X149725Y28208D01*
X149746Y28170D01*
X149785Y28131D01*
X149831Y28089D01*
X149866Y28071D01*
X149900Y28054D01*
X149904D01*
X149908Y28050D01*
X149921Y28046D01*
X149942Y28042D01*
X149968Y28033D01*
X150002Y28029D01*
X150040Y28020D01*
X150087Y28012D01*
X150147Y28003D01*
X150211Y27995D01*
X150287Y27991D01*
X150373Y27982D01*
X150470Y27978D01*
X150577Y27973D01*
X150696Y27969D01*
X150828D01*
X150837D01*
X150858D01*
X150897D01*
X150948D01*
X151003Y27973D01*
X151071D01*
X151144Y27978D01*
X151220Y27982D01*
X151378Y27991D01*
X151459Y27999D01*
X151531Y28003D01*
X151604Y28016D01*
X151663Y28025D01*
X151719Y28042D01*
X151761Y28054D01*
X151770Y28059D01*
X151791Y28071D01*
X151821Y28093D01*
X151855Y28118D01*
X151893Y28152D01*
X151923Y28195D01*
X151944Y28242D01*
X151949Y28267D01*
X151953Y28293D01*
Y28302D01*
X151949Y28319D01*
X151944Y28344D01*
X151927Y28378D01*
X151906Y28417D01*
X151872Y28455D01*
X151821Y28493D01*
X151791Y28510D01*
X151757Y28527D01*
X151753D01*
X151749Y28532D01*
X151736Y28536D01*
X151714Y28540D01*
X151689Y28549D01*
X151655Y28557D01*
X151617Y28566D01*
X151565Y28574D01*
X151510Y28578D01*
X151446Y28587D01*
X151369Y28596D01*
X151284Y28604D01*
X151186Y28608D01*
X151080Y28613D01*
X150960Y28617D01*
D02*
G37*
G36*
X151220Y26393D02*
X150130D01*
X151220Y25788D01*
Y26393D01*
D02*
G37*
%LPD*%
D10*
X140450Y19390D02*
G03*
X140450Y19390I-194J0D01*
G01*
X65153Y40913D02*
G03*
X65153Y40913I-197J0D01*
G01*
X134252Y26772D02*
X140551Y26772D01*
X134252Y20472D02*
X140551Y20472D01*
X58839Y19488D02*
Y24803D01*
X65138D01*
X95453D02*
X101752D01*
Y19488D02*
Y24803D01*
X4429Y27559D02*
Y42126D01*
X31201Y27559D02*
Y42126D01*
X4429Y27559D02*
X31201D01*
X4429Y42126D02*
X31201D01*
X6638Y6457D02*
X11362D01*
X6638Y13543D02*
X11362D01*
X51575Y8661D02*
Y13386D01*
X44488Y8661D02*
Y13386D01*
D11*
X64055Y26181D02*
G03*
X64055Y26181I-492J0D01*
G01*
X32776Y49213D02*
G03*
X32776Y49213I-492J0D01*
G01*
D12*
X13331Y6063D02*
G03*
X13331Y6063I-394J0D01*
G01*
X52362Y14961D02*
G03*
X52362Y14961I-394J0D01*
G01*
M02*
